<svg width="90" height="425" viewBox="0 0 90 425" fill="none" xmlns="http://www.w3.org/2000/svg">
<path d="M3.37698 413.351L0.929566 413.033L50.884 0.0104699L53.3329 0.316244L3.37698 413.351Z" fill="#81FDE9"/>
<path d="M68.0308 2.19681L65.584 1.89111L16.5776 415.043L19.0244 415.349L68.0308 2.19681Z" fill="#81FDE9"/>
<path d="M83.7685 4.197L81.3203 3.88501L31.3481 416.914L33.7963 417.226L83.7685 4.197Z" fill="#81FDE9"/>
<path d="M98.4665 6.07646L96.0176 5.77051L47.0112 418.922L49.4601 419.228L98.4665 6.07646Z" fill="#81FDE9"/>
<path d="M114.201 8.07322L111.753 7.76123L61.7802 420.794L64.2284 421.106L114.201 8.07322Z" fill="#81FDE9"/>
<path d="M79.4473 423.046L77.0019 422.728L126.97 9.70068L129.421 10.0195L79.4473 423.046Z" fill="#81FDE9"/>
</svg>
