<svg width="34" height="65" viewBox="0 0 34 65" fill="none" xmlns="http://www.w3.org/2000/svg">
<mask id="mask0_382_39365" style="mask-type:luminance" maskUnits="userSpaceOnUse" x="0" y="1" width="34" height="32">
<path d="M0.585938 1.04102V32.6297H33.1245L0.585938 1.04102Z" fill="white"/>
</mask>
<g mask="url(#mask0_382_39365)">
<mask id="mask1_382_39365" style="mask-type:luminance" maskUnits="userSpaceOnUse" x="27" y="-4" width="10" height="10">
<path d="M36.8626 -3.54395H27.2129V5.82453H36.8626V-3.54395Z" fill="white"/>
</mask>
<g mask="url(#mask1_382_39365)">
<path d="M32.0383 6.528C32.4375 6.528 32.7613 6.21318 32.7613 5.82503C32.7613 5.43688 32.4375 5.12207 32.0383 5.12207C31.639 5.12207 31.3145 5.43688 31.3145 5.82503C31.3145 6.21392 31.6383 6.528 32.0383 6.528Z" fill="#F9FFFF"/>
<path d="M32.0383 1.8444C32.4375 1.8444 32.7613 1.52959 32.7613 1.14144C32.7613 0.753291 32.4375 0.438477 32.0383 0.438477C31.639 0.438477 31.3145 0.753291 31.3145 1.14144C31.3145 1.52959 31.6383 1.8444 32.0383 1.8444Z" fill="#F9FFFF"/>
<path d="M29.6244 4.1862C30.0237 4.1862 30.3475 3.87138 30.3475 3.48324C30.3475 3.09509 30.0237 2.78027 29.6244 2.78027C29.2252 2.78027 28.9014 3.09509 28.9014 3.48324C28.9014 3.87138 29.2252 4.1862 29.6244 4.1862Z" fill="#F9FFFF"/>
</g>
<mask id="mask2_382_39365" style="mask-type:luminance" maskUnits="userSpaceOnUse" x="27" y="-4" width="10" height="10">
<path d="M36.8626 -3.54395H27.2129V5.82453H36.8626V-3.54395Z" fill="white"/>
</mask>
<g mask="url(#mask2_382_39365)">
<path d="M27.2133 6.52848C27.6118 6.52848 27.9363 6.21367 27.9363 5.82552C27.9363 5.43737 27.6125 5.12256 27.2133 5.12256C26.8141 5.12256 26.4902 5.43737 26.4902 5.82552C26.4902 6.21441 26.8141 6.52848 27.2133 6.52848Z" fill="#F9FFFF"/>
<path d="M27.2133 1.8444C27.6118 1.8444 27.9363 1.52959 27.9363 1.14144C27.9363 0.753291 27.6125 0.438477 27.2133 0.438477C26.8141 0.438477 26.4902 0.753291 26.4902 1.14144C26.4902 1.52959 26.8141 1.8444 27.2133 1.8444Z" fill="#F9FFFF"/>
</g>
</g>
<mask id="mask3_382_39365" style="mask-type:luminance" maskUnits="userSpaceOnUse" x="0" y="1" width="34" height="32">
<path d="M0.585938 1.04102V32.6297H33.1245L0.585938 1.04102Z" fill="white"/>
</mask>
<g mask="url(#mask3_382_39365)">
<mask id="mask4_382_39365" style="mask-type:luminance" maskUnits="userSpaceOnUse" x="27" y="5" width="10" height="11">
<path d="M36.8626 5.82471H27.2129V15.1932H36.8626V5.82471Z" fill="white"/>
</mask>
<g mask="url(#mask4_382_39365)">
<path d="M32.0383 15.8966C32.4375 15.8966 32.7613 15.5818 32.7613 15.1937C32.7613 14.8055 32.4375 14.4907 32.0383 14.4907C31.639 14.4907 31.3145 14.8055 31.3145 15.1937C31.3145 15.5818 31.6383 15.8966 32.0383 15.8966Z" fill="#F9FFFF"/>
<path d="M32.0383 11.2126C32.4375 11.2126 32.7613 10.8978 32.7613 10.5096C32.7613 10.1207 32.4375 9.80664 32.0383 9.80664C31.639 9.80664 31.3145 10.1215 31.3145 10.5096C31.3145 10.8978 31.6383 11.2126 32.0383 11.2126Z" fill="#F9FFFF"/>
<path d="M29.6244 13.5544C30.0237 13.5544 30.3475 13.2395 30.3475 12.8514C30.3475 12.4633 30.0237 12.1484 29.6244 12.1484C29.2252 12.1484 28.9014 12.4633 28.9014 12.8514C28.9014 13.2395 29.2252 13.5544 29.6244 13.5544Z" fill="#F9FFFF"/>
<path d="M29.6244 8.86979C30.0237 8.86979 30.3475 8.55498 30.3475 8.16683C30.3475 7.77868 30.0237 7.46387 29.6244 7.46387C29.2252 7.46387 28.9014 7.77868 28.9014 8.16683C28.9014 8.55498 29.2252 8.86979 29.6244 8.86979Z" fill="#F9FFFF"/>
</g>
<mask id="mask5_382_39365" style="mask-type:luminance" maskUnits="userSpaceOnUse" x="27" y="5" width="10" height="11">
<path d="M36.8626 5.82471H27.2129V15.1932H36.8626V5.82471Z" fill="white"/>
</mask>
<g mask="url(#mask5_382_39365)">
<path d="M27.2133 15.8971C27.6118 15.8971 27.9363 15.5823 27.9363 15.1942C27.9363 14.806 27.6125 14.4912 27.2133 14.4912C26.8141 14.4912 26.4902 14.806 26.4902 15.1942C26.4902 15.5823 26.8141 15.8971 27.2133 15.8971Z" fill="#F9FFFF"/>
<path d="M27.2133 11.2131C27.6118 11.2131 27.9363 10.8982 27.9363 10.5101C27.9363 10.1212 27.6125 9.80713 27.2133 9.80713C26.8141 9.80713 26.4902 10.1219 26.4902 10.5101C26.4902 10.8982 26.8141 11.2131 27.2133 11.2131Z" fill="#F9FFFF"/>
</g>
<mask id="mask6_382_39365" style="mask-type:luminance" maskUnits="userSpaceOnUse" x="27" y="5" width="10" height="11">
<path d="M36.8626 5.82471H27.2129V15.1932H36.8626V5.82471Z" fill="white"/>
</mask>
<g mask="url(#mask6_382_39365)">
<path d="M32.0383 6.52874C32.4375 6.52874 32.7613 6.21392 32.7613 5.82503C32.7613 5.43688 32.4375 5.12207 32.0383 5.12207C31.639 5.12207 31.3145 5.43688 31.3145 5.82503C31.3145 6.21392 31.6383 6.52874 32.0383 6.52874Z" fill="#F9FFFF"/>
</g>
<mask id="mask7_382_39365" style="mask-type:luminance" maskUnits="userSpaceOnUse" x="27" y="5" width="10" height="11">
<path d="M36.8626 5.82471H27.2129V15.1932H36.8626V5.82471Z" fill="white"/>
</mask>
<g mask="url(#mask7_382_39365)">
<path d="M27.2133 6.52874C27.6118 6.52874 27.9363 6.21392 27.9363 5.82503C27.9363 5.43688 27.6125 5.12207 27.2133 5.12207C26.8141 5.12207 26.4902 5.43688 26.4902 5.82503C26.4902 6.21392 26.8141 6.52874 27.2133 6.52874Z" fill="#F9FFFF"/>
</g>
</g>
<mask id="mask8_382_39365" style="mask-type:luminance" maskUnits="userSpaceOnUse" x="0" y="1" width="34" height="32">
<path d="M0.585938 1.04102V32.6297H33.1245L0.585938 1.04102Z" fill="white"/>
</mask>
<g mask="url(#mask8_382_39365)">
<mask id="mask9_382_39365" style="mask-type:luminance" maskUnits="userSpaceOnUse" x="27" y="15" width="10" height="10">
<path d="M36.8626 15.1934H27.2129V24.5618H36.8626V15.1934Z" fill="white"/>
</mask>
<g mask="url(#mask9_382_39365)">
<path d="M32.0383 25.2653C32.4375 25.2653 32.7613 24.9505 32.7613 24.5623C32.7613 24.1742 32.4375 23.8594 32.0383 23.8594C31.639 23.8594 31.3145 24.1742 31.3145 24.5623C31.3145 24.9505 31.6383 25.2653 32.0383 25.2653Z" fill="#F9FFFF"/>
<path d="M32.0383 20.5817C32.4375 20.5817 32.7613 20.2669 32.7613 19.8787C32.7613 19.4906 32.4375 19.1758 32.0383 19.1758C31.639 19.1758 31.3145 19.4906 31.3145 19.8787C31.3145 20.2669 31.6383 20.5817 32.0383 20.5817Z" fill="#F9FFFF"/>
<path d="M29.6244 22.9235C30.0237 22.9235 30.3475 22.6087 30.3475 22.2205C30.3475 21.8324 30.0237 21.5176 29.6244 21.5176C29.2252 21.5176 28.9014 21.8324 28.9014 22.2205C28.9014 22.6087 29.2252 22.9235 29.6244 22.9235Z" fill="#F9FFFF"/>
<path d="M29.6244 18.2389C30.0237 18.2389 30.3475 17.9241 30.3475 17.536C30.3475 17.1478 30.0237 16.833 29.6244 16.833C29.2252 16.833 28.9014 17.1478 28.9014 17.536C28.9014 17.9241 29.2252 18.2389 29.6244 18.2389Z" fill="#F9FFFF"/>
</g>
<mask id="mask10_382_39365" style="mask-type:luminance" maskUnits="userSpaceOnUse" x="27" y="15" width="10" height="10">
<path d="M36.8626 15.1934H27.2129V24.5618H36.8626V15.1934Z" fill="white"/>
</mask>
<g mask="url(#mask10_382_39365)">
<path d="M27.2133 25.2648C27.6118 25.2648 27.9363 24.95 27.9363 24.5619C27.9363 24.1737 27.6125 23.8589 27.2133 23.8589C26.8141 23.8589 26.4902 24.1737 26.4902 24.5619C26.4902 24.95 26.8141 25.2648 27.2133 25.2648Z" fill="#F9FFFF"/>
<path d="M27.2133 20.5812C27.6118 20.5812 27.9363 20.2664 27.9363 19.8783C27.9363 19.4901 27.6125 19.1753 27.2133 19.1753C26.8141 19.1753 26.4902 19.4901 26.4902 19.8783C26.4902 20.2664 26.8141 20.5812 27.2133 20.5812Z" fill="#F9FFFF"/>
</g>
<mask id="mask11_382_39365" style="mask-type:luminance" maskUnits="userSpaceOnUse" x="27" y="15" width="10" height="10">
<path d="M36.8626 15.1934H27.2129V24.5618H36.8626V15.1934Z" fill="white"/>
</mask>
<g mask="url(#mask11_382_39365)">
<path d="M32.0383 15.8974C32.4375 15.8974 32.7613 15.5826 32.7613 15.1937C32.7613 14.8055 32.4375 14.4907 32.0383 14.4907C31.639 14.4907 31.3145 14.8055 31.3145 15.1937C31.3145 15.5818 31.6383 15.8974 32.0383 15.8974Z" fill="#F9FFFF"/>
</g>
<mask id="mask12_382_39365" style="mask-type:luminance" maskUnits="userSpaceOnUse" x="27" y="15" width="10" height="10">
<path d="M36.8626 15.1934H27.2129V24.5618H36.8626V15.1934Z" fill="white"/>
</mask>
<g mask="url(#mask12_382_39365)">
<path d="M27.2133 15.8974C27.6118 15.8974 27.9363 15.5826 27.9363 15.1937C27.9363 14.8055 27.6125 14.4907 27.2133 14.4907C26.8141 14.4907 26.4902 14.8055 26.4902 15.1937C26.4902 15.5818 26.8141 15.8974 27.2133 15.8974Z" fill="#F9FFFF"/>
</g>
</g>
<mask id="mask13_382_39365" style="mask-type:luminance" maskUnits="userSpaceOnUse" x="0" y="1" width="34" height="32">
<path d="M0.585938 1.04102V32.6297H33.1245L0.585938 1.04102Z" fill="white"/>
</mask>
<g mask="url(#mask13_382_39365)">
<mask id="mask14_382_39365" style="mask-type:luminance" maskUnits="userSpaceOnUse" x="27" y="24" width="10" height="10">
<path d="M36.8626 24.5615H27.2129V33.93H36.8626V24.5615Z" fill="white"/>
</mask>
<g mask="url(#mask14_382_39365)">
<path d="M32.0383 29.9499C32.4375 29.9499 32.7613 29.6351 32.7613 29.2469C32.7613 28.8588 32.4375 28.5439 32.0383 28.5439C31.639 28.5439 31.3145 28.8588 31.3145 29.2469C31.3145 29.6351 31.6383 29.9499 32.0383 29.9499Z" fill="#F9FFFF"/>
<path d="M29.6244 32.2917C30.0237 32.2917 30.3475 31.9769 30.3475 31.5887C30.3475 31.2006 30.0237 30.8857 29.6244 30.8857C29.2252 30.8857 28.9014 31.2006 28.9014 31.5887C28.9014 31.9769 29.2252 32.2917 29.6244 32.2917Z" fill="#F9FFFF"/>
<path d="M29.6244 27.6071C30.0237 27.6071 30.3475 27.2923 30.3475 26.9041C30.3475 26.516 30.0237 26.2012 29.6244 26.2012C29.2252 26.2012 28.9014 26.516 28.9014 26.9041C28.9014 27.2923 29.2252 27.6071 29.6244 27.6071Z" fill="#F9FFFF"/>
</g>
<mask id="mask15_382_39365" style="mask-type:luminance" maskUnits="userSpaceOnUse" x="27" y="24" width="10" height="10">
<path d="M36.8626 24.5615H27.2129V33.93H36.8626V24.5615Z" fill="white"/>
</mask>
<g mask="url(#mask15_382_39365)">
<path d="M27.2133 29.9499C27.6118 29.9499 27.9363 29.6351 27.9363 29.2469C27.9363 28.8588 27.6125 28.5439 27.2133 28.5439C26.8141 28.5439 26.4902 28.8588 26.4902 29.2469C26.4902 29.6351 26.8141 29.9499 27.2133 29.9499Z" fill="#F9FFFF"/>
</g>
<mask id="mask16_382_39365" style="mask-type:luminance" maskUnits="userSpaceOnUse" x="27" y="24" width="10" height="10">
<path d="M36.8626 24.5615H27.2129V33.93H36.8626V24.5615Z" fill="white"/>
</mask>
<g mask="url(#mask16_382_39365)">
<path d="M32.0383 25.2656C32.4375 25.2656 32.7613 24.9507 32.7613 24.5619C32.7613 24.1737 32.4375 23.8589 32.0383 23.8589C31.639 23.8589 31.3145 24.1737 31.3145 24.5619C31.3145 24.95 31.6383 25.2656 32.0383 25.2656Z" fill="#F9FFFF"/>
</g>
<mask id="mask17_382_39365" style="mask-type:luminance" maskUnits="userSpaceOnUse" x="27" y="24" width="10" height="10">
<path d="M36.8626 24.5615H27.2129V33.93H36.8626V24.5615Z" fill="white"/>
</mask>
<g mask="url(#mask17_382_39365)">
<path d="M27.2133 25.2656C27.6118 25.2656 27.9363 24.9507 27.9363 24.5619C27.9363 24.1737 27.6125 23.8589 27.2133 23.8589C26.8141 23.8589 26.4902 24.1737 26.4902 24.5619C26.4902 24.95 26.8141 25.2656 27.2133 25.2656Z" fill="#F9FFFF"/>
</g>
</g>
<mask id="mask18_382_39365" style="mask-type:luminance" maskUnits="userSpaceOnUse" x="0" y="1" width="34" height="32">
<path d="M0.585938 1.04102V32.6297H33.1245L0.585938 1.04102Z" fill="white"/>
</mask>
<g mask="url(#mask18_382_39365)">
<mask id="mask19_382_39365" style="mask-type:luminance" maskUnits="userSpaceOnUse" x="17" y="-4" width="11" height="10">
<path d="M27.2103 -3.54395H17.5605V5.82453H27.2103V-3.54395Z" fill="white"/>
</mask>
<g mask="url(#mask19_382_39365)">
<path d="M27.2113 6.528C27.6098 6.528 27.9344 6.21318 27.9344 5.82503C27.9344 5.43688 27.6106 5.12207 27.2113 5.12207C26.8121 5.12207 26.4883 5.43688 26.4883 5.82503C26.4883 6.21392 26.8121 6.528 27.2113 6.528Z" fill="#F9FFFF"/>
<path d="M22.3869 6.528C22.7861 6.528 23.11 6.21318 23.11 5.82503C23.11 5.43688 22.7861 5.12207 22.3869 5.12207C21.9869 5.12207 21.6631 5.43688 21.6631 5.82503C21.6631 6.21392 21.9869 6.528 22.3869 6.528Z" fill="#F9FFFF"/>
<path d="M27.2113 1.8444C27.6098 1.8444 27.9344 1.52959 27.9344 1.14144C27.9344 0.753291 27.6106 0.438477 27.2113 0.438477C26.8121 0.438477 26.4883 0.753291 26.4883 1.14144C26.4883 1.52959 26.8121 1.8444 27.2113 1.8444Z" fill="#F9FFFF"/>
<path d="M22.3869 1.8444C22.7861 1.8444 23.11 1.52959 23.11 1.14144C23.11 0.753291 22.7861 0.438477 22.3869 0.438477C21.9869 0.438477 21.6631 0.753291 21.6631 1.14144C21.6631 1.52959 21.9869 1.8444 22.3869 1.8444Z" fill="#F9FFFF"/>
<path d="M19.9731 4.1862C20.3723 4.1862 20.6961 3.87138 20.6961 3.48324C20.6961 3.09509 20.3723 2.78027 19.9731 2.78027C19.5738 2.78027 19.25 3.09509 19.25 3.48324C19.25 3.87138 19.573 4.1862 19.9731 4.1862Z" fill="#F9FFFF"/>
<path d="M24.7973 4.1862C25.1965 4.1862 25.5211 3.87138 25.5211 3.48324C25.5211 3.09509 25.1965 2.78027 24.7973 2.78027C24.398 2.78027 24.0742 3.09509 24.0742 3.48324C24.0742 3.87138 24.398 4.1862 24.7973 4.1862Z" fill="#F9FFFF"/>
</g>
<mask id="mask20_382_39365" style="mask-type:luminance" maskUnits="userSpaceOnUse" x="17" y="-4" width="11" height="10">
<path d="M27.2103 -3.54395H17.5605V5.82453H27.2103V-3.54395Z" fill="white"/>
</mask>
<g mask="url(#mask20_382_39365)">
<path d="M17.56 6.52848C17.9584 6.52848 18.283 6.21367 18.283 5.82552C18.283 5.43737 17.9592 5.12256 17.56 5.12256C17.1607 5.12256 16.8369 5.43737 16.8369 5.82552C16.8369 6.21441 17.16 6.52848 17.56 6.52848Z" fill="#F9FFFF"/>
<path d="M17.56 1.8444C17.9584 1.8444 18.283 1.52959 18.283 1.14144C18.283 0.753291 17.9592 0.438477 17.56 0.438477C17.1607 0.438477 16.8369 0.753291 16.8369 1.14144C16.8369 1.52959 17.16 1.8444 17.56 1.8444Z" fill="#F9FFFF"/>
</g>
</g>
<mask id="mask21_382_39365" style="mask-type:luminance" maskUnits="userSpaceOnUse" x="0" y="1" width="34" height="32">
<path d="M0.585938 1.04102V32.6297H33.1245L0.585938 1.04102Z" fill="white"/>
</mask>
<g mask="url(#mask21_382_39365)">
<mask id="mask22_382_39365" style="mask-type:luminance" maskUnits="userSpaceOnUse" x="17" y="5" width="11" height="11">
<path d="M27.2103 5.82471H17.5605V15.1932H27.2103V5.82471Z" fill="white"/>
</mask>
<g mask="url(#mask22_382_39365)">
<path d="M27.2113 15.8966C27.6098 15.8966 27.9344 15.5818 27.9344 15.1937C27.9344 14.8055 27.6106 14.4907 27.2113 14.4907C26.8121 14.4907 26.4883 14.8055 26.4883 15.1937C26.4883 15.5818 26.8121 15.8966 27.2113 15.8966Z" fill="#F9FFFF"/>
<path d="M22.3869 15.8966C22.7861 15.8966 23.11 15.5818 23.11 15.1937C23.11 14.8055 22.7861 14.4907 22.3869 14.4907C21.9869 14.4907 21.6631 14.8055 21.6631 15.1937C21.6631 15.5818 21.9869 15.8966 22.3869 15.8966Z" fill="#F9FFFF"/>
<path d="M27.2113 11.2126C27.6098 11.2126 27.9344 10.8978 27.9344 10.5096C27.9344 10.1207 27.6106 9.80664 27.2113 9.80664C26.8121 9.80664 26.4883 10.1215 26.4883 10.5096C26.4883 10.8978 26.8121 11.2126 27.2113 11.2126Z" fill="#F9FFFF"/>
<path d="M22.3869 11.2126C22.7861 11.2126 23.11 10.8978 23.11 10.5096C23.11 10.1207 22.7861 9.80664 22.3869 9.80664C21.9869 9.80664 21.6631 10.1215 21.6631 10.5096C21.6631 10.8978 21.9869 11.2126 22.3869 11.2126Z" fill="#F9FFFF"/>
<path d="M19.9731 13.5544C20.3723 13.5544 20.6961 13.2395 20.6961 12.8514C20.6961 12.4633 20.3723 12.1484 19.9731 12.1484C19.5738 12.1484 19.25 12.4633 19.25 12.8514C19.25 13.2395 19.573 13.5544 19.9731 13.5544Z" fill="#F9FFFF"/>
<path d="M24.7973 13.5544C25.1965 13.5544 25.5211 13.2395 25.5211 12.8514C25.5211 12.4633 25.1965 12.1484 24.7973 12.1484C24.398 12.1484 24.0742 12.4633 24.0742 12.8514C24.0742 13.2395 24.398 13.5544 24.7973 13.5544Z" fill="#F9FFFF"/>
<path d="M19.9731 8.86979C20.3723 8.86979 20.6961 8.55498 20.6961 8.16683C20.6961 7.77868 20.3723 7.46387 19.9731 7.46387C19.5738 7.46387 19.25 7.77868 19.25 8.16683C19.25 8.55498 19.573 8.86979 19.9731 8.86979Z" fill="#F9FFFF"/>
<path d="M24.7973 8.86979C25.1965 8.86979 25.5211 8.55498 25.5211 8.16683C25.5211 7.77868 25.1965 7.46387 24.7973 7.46387C24.398 7.46387 24.0742 7.77868 24.0742 8.16683C24.0742 8.55498 24.398 8.86979 24.7973 8.86979Z" fill="#F9FFFF"/>
</g>
<mask id="mask23_382_39365" style="mask-type:luminance" maskUnits="userSpaceOnUse" x="17" y="5" width="11" height="11">
<path d="M27.2103 5.82471H17.5605V15.1932H27.2103V5.82471Z" fill="white"/>
</mask>
<g mask="url(#mask23_382_39365)">
<path d="M17.56 15.8971C17.9584 15.8971 18.283 15.5823 18.283 15.1942C18.283 14.806 17.9592 14.4912 17.56 14.4912C17.1607 14.4912 16.8369 14.806 16.8369 15.1942C16.8369 15.5823 17.16 15.8971 17.56 15.8971Z" fill="#F9FFFF"/>
<path d="M17.56 11.2131C17.9584 11.2131 18.283 10.8982 18.283 10.5101C18.283 10.1212 17.9592 9.80713 17.56 9.80713C17.1607 9.80713 16.8369 10.1219 16.8369 10.5101C16.8369 10.8982 17.16 11.2131 17.56 11.2131Z" fill="#F9FFFF"/>
</g>
<mask id="mask24_382_39365" style="mask-type:luminance" maskUnits="userSpaceOnUse" x="17" y="5" width="11" height="11">
<path d="M27.2103 5.82471H17.5605V15.1932H27.2103V5.82471Z" fill="white"/>
</mask>
<g mask="url(#mask24_382_39365)">
<path d="M27.2094 6.52874C27.6079 6.52874 27.9324 6.21392 27.9324 5.82503C27.9324 5.43688 27.6086 5.12207 27.2094 5.12207C26.8101 5.12207 26.4863 5.43688 26.4863 5.82503C26.4863 6.21392 26.8101 6.52874 27.2094 6.52874Z" fill="#F9FFFF"/>
<path d="M22.3849 6.52874C22.7842 6.52874 23.108 6.21392 23.108 5.82503C23.108 5.43688 22.7842 5.12207 22.3849 5.12207C21.9849 5.12207 21.6611 5.43688 21.6611 5.82503C21.6611 6.21392 21.9849 6.52874 22.3849 6.52874Z" fill="#F9FFFF"/>
</g>
<mask id="mask25_382_39365" style="mask-type:luminance" maskUnits="userSpaceOnUse" x="17" y="5" width="11" height="11">
<path d="M27.2103 5.82471H17.5605V15.1932H27.2103V5.82471Z" fill="white"/>
</mask>
<g mask="url(#mask25_382_39365)">
<path d="M17.56 6.52874C17.9584 6.52874 18.283 6.21392 18.283 5.82503C18.283 5.43688 17.9592 5.12207 17.56 5.12207C17.1607 5.12207 16.8369 5.43688 16.8369 5.82503C16.8369 6.21392 17.16 6.52874 17.56 6.52874Z" fill="#F9FFFF"/>
</g>
</g>
<mask id="mask26_382_39365" style="mask-type:luminance" maskUnits="userSpaceOnUse" x="0" y="1" width="34" height="32">
<path d="M0.585938 1.04102V32.6297H33.1245L0.585938 1.04102Z" fill="white"/>
</mask>
<g mask="url(#mask26_382_39365)">
<mask id="mask27_382_39365" style="mask-type:luminance" maskUnits="userSpaceOnUse" x="17" y="15" width="11" height="10">
<path d="M27.2103 15.1934H17.5605V24.5618H27.2103V15.1934Z" fill="white"/>
</mask>
<g mask="url(#mask27_382_39365)">
<path d="M27.2113 25.2653C27.6098 25.2653 27.9344 24.9505 27.9344 24.5623C27.9344 24.1742 27.6106 23.8594 27.2113 23.8594C26.8121 23.8594 26.4883 24.1742 26.4883 24.5623C26.4883 24.9505 26.8121 25.2653 27.2113 25.2653Z" fill="#F9FFFF"/>
<path d="M22.3869 25.2653C22.7861 25.2653 23.11 24.9505 23.11 24.5623C23.11 24.1742 22.7861 23.8594 22.3869 23.8594C21.9869 23.8594 21.6631 24.1742 21.6631 24.5623C21.6631 24.9505 21.9869 25.2653 22.3869 25.2653Z" fill="#F9FFFF"/>
<path d="M27.2113 20.5817C27.6098 20.5817 27.9344 20.2669 27.9344 19.8787C27.9344 19.4906 27.6106 19.1758 27.2113 19.1758C26.8121 19.1758 26.4883 19.4906 26.4883 19.8787C26.4883 20.2669 26.8121 20.5817 27.2113 20.5817Z" fill="#F9FFFF"/>
<path d="M22.3869 20.5817C22.7861 20.5817 23.11 20.2669 23.11 19.8787C23.11 19.4906 22.7861 19.1758 22.3869 19.1758C21.9869 19.1758 21.6631 19.4906 21.6631 19.8787C21.6631 20.2669 21.9869 20.5817 22.3869 20.5817Z" fill="#F9FFFF"/>
<path d="M19.9731 22.9235C20.3723 22.9235 20.6961 22.6087 20.6961 22.2205C20.6961 21.8324 20.3723 21.5176 19.9731 21.5176C19.5738 21.5176 19.25 21.8324 19.25 22.2205C19.25 22.6087 19.573 22.9235 19.9731 22.9235Z" fill="#F9FFFF"/>
<path d="M24.7973 22.9235C25.1965 22.9235 25.5211 22.6087 25.5211 22.2205C25.5211 21.8324 25.1965 21.5176 24.7973 21.5176C24.398 21.5176 24.0742 21.8324 24.0742 22.2205C24.0742 22.6087 24.398 22.9235 24.7973 22.9235Z" fill="#F9FFFF"/>
<path d="M19.9731 18.2389C20.3723 18.2389 20.6961 17.9241 20.6961 17.536C20.6961 17.1478 20.3723 16.833 19.9731 16.833C19.5738 16.833 19.25 17.1478 19.25 17.536C19.25 17.9241 19.573 18.2389 19.9731 18.2389Z" fill="#F9FFFF"/>
<path d="M24.7973 18.2389C25.1965 18.2389 25.5211 17.9241 25.5211 17.536C25.5211 17.1478 25.1965 16.833 24.7973 16.833C24.398 16.833 24.0742 17.1478 24.0742 17.536C24.0742 17.9241 24.398 18.2389 24.7973 18.2389Z" fill="#F9FFFF"/>
</g>
<mask id="mask28_382_39365" style="mask-type:luminance" maskUnits="userSpaceOnUse" x="17" y="15" width="11" height="10">
<path d="M27.2103 15.1934H17.5605V24.5618H27.2103V15.1934Z" fill="white"/>
</mask>
<g mask="url(#mask28_382_39365)">
<path d="M17.56 25.2648C17.9584 25.2648 18.283 24.95 18.283 24.5619C18.283 24.1737 17.9592 23.8589 17.56 23.8589C17.1607 23.8589 16.8369 24.1737 16.8369 24.5619C16.8369 24.95 17.16 25.2648 17.56 25.2648Z" fill="#F9FFFF"/>
<path d="M17.56 20.5812C17.9584 20.5812 18.283 20.2664 18.283 19.8783C18.283 19.4901 17.9592 19.1753 17.56 19.1753C17.1607 19.1753 16.8369 19.4901 16.8369 19.8783C16.8369 20.2664 17.16 20.5812 17.56 20.5812Z" fill="#F9FFFF"/>
</g>
<mask id="mask29_382_39365" style="mask-type:luminance" maskUnits="userSpaceOnUse" x="17" y="15" width="11" height="10">
<path d="M27.2103 15.1934H17.5605V24.5618H27.2103V15.1934Z" fill="white"/>
</mask>
<g mask="url(#mask29_382_39365)">
<path d="M27.2094 15.8974C27.6079 15.8974 27.9324 15.5826 27.9324 15.1937C27.9324 14.8055 27.6086 14.4907 27.2094 14.4907C26.8101 14.4907 26.4863 14.8055 26.4863 15.1937C26.4863 15.5818 26.8101 15.8974 27.2094 15.8974Z" fill="#F9FFFF"/>
<path d="M22.3849 15.8974C22.7842 15.8974 23.108 15.5826 23.108 15.1937C23.108 14.8055 22.7842 14.4907 22.3849 14.4907C21.9849 14.4907 21.6611 14.8055 21.6611 15.1937C21.6611 15.5818 21.9849 15.8974 22.3849 15.8974Z" fill="#F9FFFF"/>
</g>
<mask id="mask30_382_39365" style="mask-type:luminance" maskUnits="userSpaceOnUse" x="17" y="15" width="11" height="10">
<path d="M27.2103 15.1934H17.5605V24.5618H27.2103V15.1934Z" fill="white"/>
</mask>
<g mask="url(#mask30_382_39365)">
<path d="M17.56 15.8974C17.9584 15.8974 18.283 15.5826 18.283 15.1937C18.283 14.8055 17.9592 14.4907 17.56 14.4907C17.1607 14.4907 16.8369 14.8055 16.8369 15.1937C16.8369 15.5818 17.16 15.8974 17.56 15.8974Z" fill="#F9FFFF"/>
</g>
</g>
<mask id="mask31_382_39365" style="mask-type:luminance" maskUnits="userSpaceOnUse" x="0" y="1" width="34" height="32">
<path d="M0.585938 1.04102V32.6297H33.1245L0.585938 1.04102Z" fill="white"/>
</mask>
<g mask="url(#mask31_382_39365)">
<mask id="mask32_382_39365" style="mask-type:luminance" maskUnits="userSpaceOnUse" x="17" y="24" width="11" height="10">
<path d="M27.2103 24.5615H17.5605V33.93H27.2103V24.5615Z" fill="white"/>
</mask>
<g mask="url(#mask32_382_39365)">
<path d="M27.2113 29.9499C27.6098 29.9499 27.9344 29.6351 27.9344 29.2469C27.9344 28.8588 27.6106 28.5439 27.2113 28.5439C26.8121 28.5439 26.4883 28.8588 26.4883 29.2469C26.4883 29.6351 26.8121 29.9499 27.2113 29.9499Z" fill="#F9FFFF"/>
<path d="M22.3869 29.9499C22.7861 29.9499 23.11 29.6351 23.11 29.2469C23.11 28.8588 22.7861 28.5439 22.3869 28.5439C21.9869 28.5439 21.6631 28.8588 21.6631 29.2469C21.6631 29.6351 21.9869 29.9499 22.3869 29.9499Z" fill="#F9FFFF"/>
<path d="M19.9731 32.2917C20.3723 32.2917 20.6961 31.9769 20.6961 31.5887C20.6961 31.2006 20.3723 30.8857 19.9731 30.8857C19.5738 30.8857 19.25 31.2006 19.25 31.5887C19.25 31.9769 19.573 32.2917 19.9731 32.2917Z" fill="#F9FFFF"/>
<path d="M24.7973 32.2917C25.1965 32.2917 25.5211 31.9769 25.5211 31.5887C25.5211 31.2006 25.1965 30.8857 24.7973 30.8857C24.398 30.8857 24.0742 31.2006 24.0742 31.5887C24.0742 31.9769 24.398 32.2917 24.7973 32.2917Z" fill="#F9FFFF"/>
<path d="M19.9731 27.6071C20.3723 27.6071 20.6961 27.2923 20.6961 26.9041C20.6961 26.516 20.3723 26.2012 19.9731 26.2012C19.5738 26.2012 19.25 26.516 19.25 26.9041C19.25 27.2923 19.573 27.6071 19.9731 27.6071Z" fill="#F9FFFF"/>
<path d="M24.7973 27.6071C25.1965 27.6071 25.5211 27.2923 25.5211 26.9041C25.5211 26.516 25.1965 26.2012 24.7973 26.2012C24.398 26.2012 24.0742 26.516 24.0742 26.9041C24.0742 27.2923 24.398 27.6071 24.7973 27.6071Z" fill="#F9FFFF"/>
</g>
<mask id="mask33_382_39365" style="mask-type:luminance" maskUnits="userSpaceOnUse" x="17" y="24" width="11" height="10">
<path d="M27.2103 24.5615H17.5605V33.93H27.2103V24.5615Z" fill="white"/>
</mask>
<g mask="url(#mask33_382_39365)">
<path d="M17.56 29.9499C17.9584 29.9499 18.283 29.6351 18.283 29.2469C18.283 28.8588 17.9592 28.5439 17.56 28.5439C17.1607 28.5439 16.8369 28.8588 16.8369 29.2469C16.8369 29.6351 17.16 29.9499 17.56 29.9499Z" fill="#F9FFFF"/>
</g>
<mask id="mask34_382_39365" style="mask-type:luminance" maskUnits="userSpaceOnUse" x="17" y="24" width="11" height="10">
<path d="M27.2103 24.5615H17.5605V33.93H27.2103V24.5615Z" fill="white"/>
</mask>
<g mask="url(#mask34_382_39365)">
<path d="M27.2094 25.2656C27.6079 25.2656 27.9324 24.9507 27.9324 24.5619C27.9324 24.1737 27.6086 23.8589 27.2094 23.8589C26.8101 23.8589 26.4863 24.1737 26.4863 24.5619C26.4863 24.95 26.8101 25.2656 27.2094 25.2656Z" fill="#F9FFFF"/>
<path d="M22.3849 25.2656C22.7842 25.2656 23.108 24.9507 23.108 24.5619C23.108 24.1737 22.7842 23.8589 22.3849 23.8589C21.9849 23.8589 21.6611 24.1737 21.6611 24.5619C21.6611 24.95 21.9849 25.2656 22.3849 25.2656Z" fill="#F9FFFF"/>
</g>
<mask id="mask35_382_39365" style="mask-type:luminance" maskUnits="userSpaceOnUse" x="17" y="24" width="11" height="10">
<path d="M27.2103 24.5615H17.5605V33.93H27.2103V24.5615Z" fill="white"/>
</mask>
<g mask="url(#mask35_382_39365)">
<path d="M17.56 25.2656C17.9584 25.2656 18.283 24.9507 18.283 24.5619C18.283 24.1737 17.9592 23.8589 17.56 23.8589C17.1607 23.8589 16.8369 24.1737 16.8369 24.5619C16.8369 24.95 17.16 25.2656 17.56 25.2656Z" fill="#F9FFFF"/>
</g>
</g>
<mask id="mask36_382_39365" style="mask-type:luminance" maskUnits="userSpaceOnUse" x="0" y="1" width="34" height="32">
<path d="M0.585938 1.04102V32.6297H33.1245L0.585938 1.04102Z" fill="white"/>
</mask>
<g mask="url(#mask36_382_39365)">
<mask id="mask37_382_39365" style="mask-type:luminance" maskUnits="userSpaceOnUse" x="7" y="-4" width="11" height="10">
<path d="M17.5628 -3.54395H7.91309V5.82453H17.5628V-3.54395Z" fill="white"/>
</mask>
<g mask="url(#mask37_382_39365)">
<path d="M17.5629 6.528C17.9614 6.528 18.286 6.21318 18.286 5.82503C18.286 5.43688 17.9621 5.12207 17.5629 5.12207C17.1637 5.12207 16.8398 5.43688 16.8398 5.82503C16.8398 6.21392 17.1629 6.528 17.5629 6.528Z" fill="#F9FFFF"/>
<path d="M12.7375 6.528C13.1367 6.528 13.4605 6.21318 13.4605 5.82503C13.4605 5.43688 13.1367 5.12207 12.7375 5.12207C12.3382 5.12207 12.0137 5.43688 12.0137 5.82503C12.0144 6.21392 12.3382 6.528 12.7375 6.528Z" fill="#F9FFFF"/>
<path d="M17.5629 1.8444C17.9614 1.8444 18.286 1.52959 18.286 1.14144C18.286 0.753291 17.9621 0.438477 17.5629 0.438477C17.1637 0.438477 16.8398 0.753291 16.8398 1.14144C16.8398 1.52959 17.1629 1.8444 17.5629 1.8444Z" fill="#F9FFFF"/>
<path d="M12.7375 1.8444C13.1367 1.8444 13.4605 1.52959 13.4605 1.14144C13.4605 0.753291 13.1367 0.438477 12.7375 0.438477C12.3382 0.438477 12.0137 0.753291 12.0137 1.14144C12.0144 1.52959 12.3382 1.8444 12.7375 1.8444Z" fill="#F9FFFF"/>
<path d="M10.3246 4.1862C10.7239 4.1862 11.0477 3.87138 11.0477 3.48324C11.0477 3.09509 10.7239 2.78027 10.3246 2.78027C9.92538 2.78027 9.60156 3.09509 9.60156 3.48324C9.6008 3.87138 9.92462 4.1862 10.3246 4.1862Z" fill="#F9FFFF"/>
<path d="M15.1488 4.1862C15.5481 4.1862 15.8727 3.87138 15.8727 3.48324C15.8727 3.09509 15.5481 2.78027 15.1488 2.78027C14.7496 2.78027 14.4258 3.09509 14.4258 3.48324C14.4258 3.87138 14.7496 4.1862 15.1488 4.1862Z" fill="#F9FFFF"/>
</g>
<mask id="mask38_382_39365" style="mask-type:luminance" maskUnits="userSpaceOnUse" x="7" y="-4" width="11" height="10">
<path d="M17.5628 -3.54395H7.91309V5.82453H17.5628V-3.54395Z" fill="white"/>
</mask>
<g mask="url(#mask38_382_39365)">
<path d="M7.91251 6.528C8.31175 6.528 8.63556 6.21318 8.63556 5.82503C8.63556 5.43688 8.31175 5.12207 7.91251 5.12207C7.51327 5.12207 7.18945 5.43688 7.18945 5.82503C7.18869 6.21392 7.5125 6.528 7.91251 6.528Z" fill="#F9FFFF"/>
<path d="M7.91251 1.8444C8.31175 1.8444 8.63556 1.52959 8.63556 1.14144C8.63556 0.753291 8.31175 0.438477 7.91251 0.438477C7.51327 0.438477 7.18945 0.753291 7.18945 1.14144C7.18869 1.52959 7.5125 1.8444 7.91251 1.8444Z" fill="#F9FFFF"/>
</g>
</g>
<mask id="mask39_382_39365" style="mask-type:luminance" maskUnits="userSpaceOnUse" x="0" y="1" width="34" height="32">
<path d="M0.585938 1.04102V32.6297H33.1245L0.585938 1.04102Z" fill="white"/>
</mask>
<g mask="url(#mask39_382_39365)">
<mask id="mask40_382_39365" style="mask-type:luminance" maskUnits="userSpaceOnUse" x="7" y="5" width="11" height="11">
<path d="M17.5628 5.82471H7.91309V15.1932H17.5628V5.82471Z" fill="white"/>
</mask>
<g mask="url(#mask40_382_39365)">
<path d="M17.5629 15.8966C17.9614 15.8966 18.286 15.5818 18.286 15.1937C18.286 14.8055 17.9621 14.4907 17.5629 14.4907C17.1637 14.4907 16.8398 14.8055 16.8398 15.1937C16.8398 15.5818 17.1629 15.8966 17.5629 15.8966Z" fill="#F9FFFF"/>
<path d="M12.7375 15.8966C13.1367 15.8966 13.4605 15.5818 13.4605 15.1937C13.4605 14.8055 13.1367 14.4907 12.7375 14.4907C12.3382 14.4907 12.0137 14.8055 12.0137 15.1937C12.0137 15.5818 12.3382 15.8966 12.7375 15.8966Z" fill="#F9FFFF"/>
<path d="M17.5629 11.2126C17.9614 11.2126 18.286 10.8978 18.286 10.5096C18.286 10.1207 17.9621 9.80664 17.5629 9.80664C17.1637 9.80664 16.8398 10.1215 16.8398 10.5096C16.8398 10.8978 17.1629 11.2126 17.5629 11.2126Z" fill="#F9FFFF"/>
<path d="M12.7375 11.2126C13.1367 11.2126 13.4605 10.8978 13.4605 10.5096C13.4605 10.1207 13.1367 9.80664 12.7375 9.80664C12.3382 9.80664 12.0137 10.1215 12.0137 10.5096C12.0144 10.8978 12.3382 11.2126 12.7375 11.2126Z" fill="#F9FFFF"/>
<path d="M10.3246 13.5544C10.7239 13.5544 11.0477 13.2395 11.0477 12.8514C11.0477 12.4633 10.7239 12.1484 10.3246 12.1484C9.92538 12.1484 9.60156 12.4633 9.60156 12.8514C9.6008 13.2395 9.92462 13.5544 10.3246 13.5544Z" fill="#F9FFFF"/>
<path d="M15.1488 13.5544C15.5481 13.5544 15.8727 13.2395 15.8727 12.8514C15.8727 12.4633 15.5481 12.1484 15.1488 12.1484C14.7496 12.1484 14.4258 12.4633 14.4258 12.8514C14.4258 13.2395 14.7496 13.5544 15.1488 13.5544Z" fill="#F9FFFF"/>
<path d="M10.3246 8.86979C10.7239 8.86979 11.0477 8.55498 11.0477 8.16683C11.0477 7.77868 10.7239 7.46387 10.3246 7.46387C9.92538 7.46387 9.60156 7.77868 9.60156 8.16683C9.6008 8.55498 9.92462 8.86979 10.3246 8.86979Z" fill="#F9FFFF"/>
<path d="M15.1488 8.86979C15.5481 8.86979 15.8727 8.55498 15.8727 8.16683C15.8727 7.77868 15.5481 7.46387 15.1488 7.46387C14.7496 7.46387 14.4258 7.77868 14.4258 8.16683C14.4258 8.55498 14.7496 8.86979 15.1488 8.86979Z" fill="#F9FFFF"/>
</g>
<mask id="mask41_382_39365" style="mask-type:luminance" maskUnits="userSpaceOnUse" x="7" y="5" width="11" height="11">
<path d="M17.5628 5.82471H7.91309V15.1932H17.5628V5.82471Z" fill="white"/>
</mask>
<g mask="url(#mask41_382_39365)">
<path d="M7.91251 15.8971C8.31175 15.8971 8.63556 15.5823 8.63556 15.1942C8.63556 14.806 8.31175 14.4912 7.91251 14.4912C7.51326 14.4912 7.18945 14.806 7.18945 15.1942C7.18945 15.5823 7.5125 15.8971 7.91251 15.8971Z" fill="#F9FFFF"/>
<path d="M7.91251 11.2131C8.31175 11.2131 8.63556 10.8982 8.63556 10.5101C8.63556 10.1212 8.31175 9.80713 7.91251 9.80713C7.51327 9.80713 7.18945 10.1219 7.18945 10.5101C7.18869 10.8982 7.5125 11.2131 7.91251 11.2131Z" fill="#F9FFFF"/>
</g>
<mask id="mask42_382_39365" style="mask-type:luminance" maskUnits="userSpaceOnUse" x="7" y="5" width="11" height="11">
<path d="M17.5628 5.82471H7.91309V15.1932H17.5628V5.82471Z" fill="white"/>
</mask>
<g mask="url(#mask42_382_39365)">
<path d="M17.5629 6.52874C17.9614 6.52874 18.286 6.21392 18.286 5.82503C18.286 5.43688 17.9621 5.12207 17.5629 5.12207C17.1637 5.12207 16.8398 5.43688 16.8398 5.82503C16.8398 6.21392 17.1629 6.52874 17.5629 6.52874Z" fill="#F9FFFF"/>
<path d="M12.7385 6.52874C13.1377 6.52874 13.4615 6.21392 13.4615 5.82503C13.4615 5.43688 13.1377 5.12207 12.7385 5.12207C12.3392 5.12207 12.0146 5.43688 12.0146 5.82503C12.0154 6.21392 12.3392 6.52874 12.7385 6.52874Z" fill="#F9FFFF"/>
</g>
<mask id="mask43_382_39365" style="mask-type:luminance" maskUnits="userSpaceOnUse" x="7" y="5" width="11" height="11">
<path d="M17.5628 5.82471H7.91309V15.1932H17.5628V5.82471Z" fill="white"/>
</mask>
<g mask="url(#mask43_382_39365)">
<path d="M7.91251 6.52874C8.31175 6.52874 8.63556 6.21392 8.63556 5.82503C8.63556 5.43688 8.31175 5.12207 7.91251 5.12207C7.51327 5.12207 7.18945 5.43688 7.18945 5.82503C7.18869 6.21392 7.5125 6.52874 7.91251 6.52874Z" fill="#F9FFFF"/>
</g>
</g>
<mask id="mask44_382_39365" style="mask-type:luminance" maskUnits="userSpaceOnUse" x="0" y="1" width="34" height="32">
<path d="M0.585938 1.04102V32.6297H33.1245L0.585938 1.04102Z" fill="white"/>
</mask>
<g mask="url(#mask44_382_39365)">
<mask id="mask45_382_39365" style="mask-type:luminance" maskUnits="userSpaceOnUse" x="7" y="15" width="11" height="10">
<path d="M17.5628 15.1934H7.91309V24.5618H17.5628V15.1934Z" fill="white"/>
</mask>
<g mask="url(#mask45_382_39365)">
<path d="M17.5629 25.2653C17.9614 25.2653 18.286 24.9505 18.286 24.5623C18.286 24.1742 17.9621 23.8594 17.5629 23.8594C17.1637 23.8594 16.8398 24.1742 16.8398 24.5623C16.8398 24.9505 17.1629 25.2653 17.5629 25.2653Z" fill="#F9FFFF"/>
<path d="M12.7375 25.2653C13.1367 25.2653 13.4605 24.9505 13.4605 24.5623C13.4605 24.1742 13.1367 23.8594 12.7375 23.8594C12.3382 23.8594 12.0137 24.1742 12.0137 24.5623C12.0144 24.9505 12.3382 25.2653 12.7375 25.2653Z" fill="#F9FFFF"/>
<path d="M17.5629 20.5817C17.9614 20.5817 18.286 20.2669 18.286 19.8787C18.286 19.4906 17.9621 19.1758 17.5629 19.1758C17.1637 19.1758 16.8398 19.4906 16.8398 19.8787C16.8398 20.2669 17.1629 20.5817 17.5629 20.5817Z" fill="#F9FFFF"/>
<path d="M12.7375 20.5817C13.1367 20.5817 13.4605 20.2669 13.4605 19.8787C13.4605 19.4906 13.1367 19.1758 12.7375 19.1758C12.3382 19.1758 12.0137 19.4906 12.0137 19.8787C12.0144 20.2669 12.3382 20.5817 12.7375 20.5817Z" fill="#F9FFFF"/>
<path d="M10.3246 22.9235C10.7239 22.9235 11.0477 22.6087 11.0477 22.2205C11.0477 21.8324 10.7239 21.5176 10.3246 21.5176C9.92538 21.5176 9.60156 21.8324 9.60156 22.2205C9.6008 22.6087 9.92462 22.9235 10.3246 22.9235Z" fill="#F9FFFF"/>
<path d="M15.1488 22.9235C15.5481 22.9235 15.8727 22.6087 15.8727 22.2205C15.8727 21.8324 15.5481 21.5176 15.1488 21.5176C14.7496 21.5176 14.4258 21.8324 14.4258 22.2205C14.4258 22.6087 14.7496 22.9235 15.1488 22.9235Z" fill="#F9FFFF"/>
<path d="M10.3246 18.2389C10.7239 18.2389 11.0477 17.9241 11.0477 17.536C11.0477 17.1478 10.7239 16.833 10.3246 16.833C9.92538 16.833 9.60156 17.1478 9.60156 17.536C9.6008 17.9241 9.92462 18.2389 10.3246 18.2389Z" fill="#F9FFFF"/>
<path d="M15.1488 18.2389C15.5481 18.2389 15.8727 17.9241 15.8727 17.536C15.8727 17.1478 15.5481 16.833 15.1488 16.833C14.7496 16.833 14.4258 17.1478 14.4258 17.536C14.4258 17.9241 14.7496 18.2389 15.1488 18.2389Z" fill="#F9FFFF"/>
</g>
<mask id="mask46_382_39365" style="mask-type:luminance" maskUnits="userSpaceOnUse" x="7" y="15" width="11" height="10">
<path d="M17.5628 15.1934H7.91309V24.5618H17.5628V15.1934Z" fill="white"/>
</mask>
<g mask="url(#mask46_382_39365)">
<path d="M7.91251 25.2653C8.31175 25.2653 8.63556 24.9505 8.63556 24.5623C8.63556 24.1742 8.31175 23.8594 7.91251 23.8594C7.51327 23.8594 7.18945 24.1742 7.18945 24.5623C7.18869 24.9505 7.5125 25.2653 7.91251 25.2653Z" fill="#F9FFFF"/>
<path d="M7.91251 20.5812C8.31175 20.5812 8.63556 20.2664 8.63556 19.8783C8.63556 19.4901 8.31175 19.1753 7.91251 19.1753C7.51327 19.1753 7.18945 19.4901 7.18945 19.8783C7.18869 20.2664 7.5125 20.5812 7.91251 20.5812Z" fill="#F9FFFF"/>
</g>
<mask id="mask47_382_39365" style="mask-type:luminance" maskUnits="userSpaceOnUse" x="7" y="15" width="11" height="10">
<path d="M17.5628 15.1934H7.91309V24.5618H17.5628V15.1934Z" fill="white"/>
</mask>
<g mask="url(#mask47_382_39365)">
<path d="M17.5629 15.8974C17.9614 15.8974 18.286 15.5826 18.286 15.1937C18.286 14.8055 17.9621 14.4907 17.5629 14.4907C17.1637 14.4907 16.8398 14.8055 16.8398 15.1937C16.8398 15.5818 17.1629 15.8974 17.5629 15.8974Z" fill="#F9FFFF"/>
<path d="M12.7385 15.8974C13.1377 15.8974 13.4615 15.5826 13.4615 15.1937C13.4615 14.8055 13.1377 14.4907 12.7385 14.4907C12.3392 14.4907 12.0146 14.8055 12.0146 15.1937C12.0154 15.5818 12.3392 15.8974 12.7385 15.8974Z" fill="#F9FFFF"/>
</g>
<mask id="mask48_382_39365" style="mask-type:luminance" maskUnits="userSpaceOnUse" x="7" y="15" width="11" height="10">
<path d="M17.5628 15.1934H7.91309V24.5618H17.5628V15.1934Z" fill="white"/>
</mask>
<g mask="url(#mask48_382_39365)">
<path d="M7.91251 15.8974C8.31175 15.8974 8.63556 15.5826 8.63556 15.1937C8.63556 14.8055 8.31175 14.4907 7.91251 14.4907C7.51327 14.4907 7.18945 14.8055 7.18945 15.1937C7.18869 15.5818 7.5125 15.8974 7.91251 15.8974Z" fill="#F9FFFF"/>
</g>
</g>
<mask id="mask49_382_39365" style="mask-type:luminance" maskUnits="userSpaceOnUse" x="0" y="1" width="34" height="32">
<path d="M0.585938 1.04102V32.6297H33.1245L0.585938 1.04102Z" fill="white"/>
</mask>
<g mask="url(#mask49_382_39365)">
<mask id="mask50_382_39365" style="mask-type:luminance" maskUnits="userSpaceOnUse" x="7" y="24" width="11" height="10">
<path d="M17.5628 24.5615H7.91309V33.93H17.5628V24.5615Z" fill="white"/>
</mask>
<g mask="url(#mask50_382_39365)">
<path d="M17.5629 29.9499C17.9614 29.9499 18.286 29.6351 18.286 29.2469C18.286 28.8588 17.9621 28.5439 17.5629 28.5439C17.1637 28.5439 16.8398 28.8588 16.8398 29.2469C16.8398 29.6351 17.1629 29.9499 17.5629 29.9499Z" fill="#F9FFFF"/>
<path d="M12.7375 29.9499C13.1367 29.9499 13.4605 29.6351 13.4605 29.2469C13.4605 28.8588 13.1367 28.5439 12.7375 28.5439C12.3382 28.5439 12.0137 28.8588 12.0137 29.2469C12.0144 29.6351 12.3382 29.9499 12.7375 29.9499Z" fill="#F9FFFF"/>
<path d="M10.3246 32.2917C10.7239 32.2917 11.0477 31.9769 11.0477 31.5887C11.0477 31.2006 10.7239 30.8857 10.3246 30.8857C9.92538 30.8857 9.60156 31.2006 9.60156 31.5887C9.6008 31.9769 9.92462 32.2917 10.3246 32.2917Z" fill="#F9FFFF"/>
<path d="M15.1488 32.2917C15.5481 32.2917 15.8727 31.9769 15.8727 31.5887C15.8727 31.2006 15.5481 30.8857 15.1488 30.8857C14.7496 30.8857 14.4258 31.2006 14.4258 31.5887C14.4258 31.9769 14.7496 32.2917 15.1488 32.2917Z" fill="#F9FFFF"/>
<path d="M10.3246 27.6071C10.7239 27.6071 11.0477 27.2923 11.0477 26.9041C11.0477 26.516 10.7239 26.2012 10.3246 26.2012C9.92538 26.2012 9.60156 26.516 9.60156 26.9041C9.6008 27.2923 9.92462 27.6071 10.3246 27.6071Z" fill="#F9FFFF"/>
<path d="M15.1488 27.6071C15.5481 27.6071 15.8727 27.2923 15.8727 26.9041C15.8727 26.516 15.5481 26.2012 15.1488 26.2012C14.7496 26.2012 14.4258 26.516 14.4258 26.9041C14.4258 27.2923 14.7496 27.6071 15.1488 27.6071Z" fill="#F9FFFF"/>
</g>
<mask id="mask51_382_39365" style="mask-type:luminance" maskUnits="userSpaceOnUse" x="7" y="24" width="11" height="10">
<path d="M17.5628 24.5615H7.91309V33.93H17.5628V24.5615Z" fill="white"/>
</mask>
<g mask="url(#mask51_382_39365)">
<path d="M7.91251 29.9499C8.31175 29.9499 8.63556 29.6351 8.63556 29.2469C8.63556 28.8588 8.31175 28.5439 7.91251 28.5439C7.51327 28.5439 7.18945 28.8588 7.18945 29.2469C7.18869 29.6351 7.5125 29.9499 7.91251 29.9499Z" fill="#F9FFFF"/>
</g>
<mask id="mask52_382_39365" style="mask-type:luminance" maskUnits="userSpaceOnUse" x="7" y="24" width="11" height="10">
<path d="M17.5628 24.5615H7.91309V33.93H17.5628V24.5615Z" fill="white"/>
</mask>
<g mask="url(#mask52_382_39365)">
<path d="M17.5629 25.2656C17.9614 25.2656 18.286 24.9507 18.286 24.5619C18.286 24.1737 17.9621 23.8589 17.5629 23.8589C17.1637 23.8589 16.8398 24.1737 16.8398 24.5619C16.8398 24.95 17.1629 25.2656 17.5629 25.2656Z" fill="#F9FFFF"/>
<path d="M12.7385 25.2656C13.1377 25.2656 13.4615 24.9507 13.4615 24.5619C13.4615 24.1737 13.1377 23.8589 12.7385 23.8589C12.3392 23.8589 12.0146 24.1737 12.0146 24.5619C12.0154 24.95 12.3392 25.2656 12.7385 25.2656Z" fill="#F9FFFF"/>
</g>
<mask id="mask53_382_39365" style="mask-type:luminance" maskUnits="userSpaceOnUse" x="7" y="24" width="11" height="10">
<path d="M17.5628 24.5615H7.91309V33.93H17.5628V24.5615Z" fill="white"/>
</mask>
<g mask="url(#mask53_382_39365)">
<path d="M7.91251 25.2656C8.31175 25.2656 8.63556 24.9507 8.63556 24.5619C8.63556 24.1737 8.31175 23.8589 7.91251 23.8589C7.51327 23.8589 7.18945 24.1737 7.18945 24.5619C7.18869 24.95 7.5125 25.2656 7.91251 25.2656Z" fill="#F9FFFF"/>
</g>
</g>
<mask id="mask54_382_39365" style="mask-type:luminance" maskUnits="userSpaceOnUse" x="0" y="1" width="34" height="32">
<path d="M0.585938 1.04102V32.6297H33.1245L0.585938 1.04102Z" fill="white"/>
</mask>
<g mask="url(#mask54_382_39365)">
<mask id="mask55_382_39365" style="mask-type:luminance" maskUnits="userSpaceOnUse" x="-2" y="-4" width="10" height="10">
<path d="M7.90949 -3.54395H-1.74023V5.82453H7.90949V-3.54395Z" fill="white"/>
</mask>
<g mask="url(#mask55_382_39365)">
<path d="M7.91153 6.528C8.31077 6.528 8.63459 6.21318 8.63459 5.82503C8.63459 5.43688 8.31077 5.12207 7.91153 5.12207C7.51229 5.12207 7.18848 5.43688 7.18848 5.82503C7.18772 6.21392 7.51153 6.528 7.91153 6.528Z" fill="#F9FFFF"/>
<path d="M3.08612 6.528C3.48537 6.528 3.80918 6.21318 3.80918 5.82503C3.80918 5.43688 3.48537 5.12207 3.08612 5.12207C2.68688 5.12207 2.3623 5.43688 2.3623 5.82503C2.3623 6.21392 2.68688 6.528 3.08612 6.528Z" fill="#F9FFFF"/>
<path d="M7.91153 1.8444C8.31077 1.8444 8.63459 1.52959 8.63459 1.14144C8.63459 0.753291 8.31077 0.438477 7.91153 0.438477C7.51229 0.438477 7.18848 0.753291 7.18848 1.14144C7.18772 1.52959 7.51153 1.8444 7.91153 1.8444Z" fill="#F9FFFF"/>
<path d="M3.08612 1.8444C3.48537 1.8444 3.80918 1.52959 3.80918 1.14144C3.80918 0.753291 3.48537 0.438477 3.08612 0.438477C2.68688 0.438477 2.3623 0.753291 2.3623 1.14144C2.3623 1.52959 2.68688 1.8444 3.08612 1.8444Z" fill="#F9FFFF"/>
<path d="M0.672272 4.1862C1.07151 4.1862 1.39533 3.87138 1.39533 3.48324C1.39533 3.09509 1.07151 2.78027 0.672272 2.78027C0.27303 2.78027 -0.0507812 3.09509 -0.0507812 3.48324C-0.0507812 3.87138 0.27303 4.1862 0.672272 4.1862Z" fill="#F9FFFF"/>
<path d="M5.49747 4.1862C5.89671 4.1862 6.22129 3.87138 6.22129 3.48324C6.22129 3.09509 5.89671 2.78027 5.49747 2.78027C5.09823 2.78027 4.77441 3.09509 4.77441 3.48324C4.77441 3.87138 5.09823 4.1862 5.49747 4.1862Z" fill="#F9FFFF"/>
</g>
</g>
<mask id="mask56_382_39365" style="mask-type:luminance" maskUnits="userSpaceOnUse" x="0" y="1" width="34" height="32">
<path d="M0.585938 1.04102V32.6297H33.1245L0.585938 1.04102Z" fill="white"/>
</mask>
<g mask="url(#mask56_382_39365)">
<mask id="mask57_382_39365" style="mask-type:luminance" maskUnits="userSpaceOnUse" x="-2" y="5" width="10" height="11">
<path d="M7.90949 5.82422H-1.74023V15.1927H7.90949V5.82422Z" fill="white"/>
</mask>
<g mask="url(#mask57_382_39365)">
<path d="M7.91153 15.8966C8.31077 15.8966 8.63459 15.5818 8.63459 15.1937C8.63459 14.8055 8.31077 14.4907 7.91153 14.4907C7.51229 14.4907 7.18848 14.8055 7.18848 15.1937C7.18848 15.5818 7.51153 15.8966 7.91153 15.8966Z" fill="#F9FFFF"/>
<path d="M3.08612 15.8966C3.48537 15.8966 3.80918 15.5818 3.80918 15.1937C3.80918 14.8055 3.48537 14.4907 3.08612 14.4907C2.68688 14.4907 2.3623 14.8055 2.3623 15.1937C2.3623 15.5818 2.68688 15.8966 3.08612 15.8966Z" fill="#F9FFFF"/>
<path d="M7.91153 11.2126C8.31077 11.2126 8.63459 10.8978 8.63459 10.5096C8.63459 10.1207 8.31077 9.80664 7.91153 9.80664C7.51229 9.80664 7.18848 10.1215 7.18848 10.5096C7.18772 10.8978 7.51153 11.2126 7.91153 11.2126Z" fill="#F9FFFF"/>
<path d="M3.08612 11.2126C3.48537 11.2126 3.80918 10.8978 3.80918 10.5096C3.80918 10.1207 3.48537 9.80664 3.08612 9.80664C2.68688 9.80664 2.3623 10.1215 2.3623 10.5096C2.3623 10.8978 2.68688 11.2126 3.08612 11.2126Z" fill="#F9FFFF"/>
<path d="M0.672272 13.5544C1.07151 13.5544 1.39533 13.2395 1.39533 12.8514C1.39533 12.4633 1.07151 12.1484 0.672272 12.1484C0.27303 12.1484 -0.0507812 12.4633 -0.0507812 12.8514C-0.0507812 13.2395 0.27303 13.5544 0.672272 13.5544Z" fill="#F9FFFF"/>
<path d="M5.49747 13.5544C5.89671 13.5544 6.22129 13.2395 6.22129 12.8514C6.22129 12.4633 5.89671 12.1484 5.49747 12.1484C5.09823 12.1484 4.77441 12.4633 4.77441 12.8514C4.77441 13.2395 5.09823 13.5544 5.49747 13.5544Z" fill="#F9FFFF"/>
<path d="M0.672272 8.86979C1.07151 8.86979 1.39533 8.55498 1.39533 8.16683C1.39533 7.77868 1.07151 7.46387 0.672272 7.46387C0.27303 7.46387 -0.0507812 7.77868 -0.0507812 8.16683C-0.0507812 8.55498 0.27303 8.86979 0.672272 8.86979Z" fill="#F9FFFF"/>
<path d="M5.49747 8.86979C5.89671 8.86979 6.22129 8.55498 6.22129 8.16683C6.22129 7.77868 5.89671 7.46387 5.49747 7.46387C5.09823 7.46387 4.77441 7.77868 4.77441 8.16683C4.77441 8.55498 5.09823 8.86979 5.49747 8.86979Z" fill="#F9FFFF"/>
</g>
<mask id="mask58_382_39365" style="mask-type:luminance" maskUnits="userSpaceOnUse" x="-2" y="5" width="10" height="11">
<path d="M7.90949 5.82422H-1.74023V15.1927H7.90949V5.82422Z" fill="white"/>
</mask>
<g mask="url(#mask58_382_39365)">
<path d="M7.91055 6.52874C8.3098 6.52874 8.63361 6.21392 8.63361 5.82503C8.63361 5.43688 8.3098 5.12207 7.91055 5.12207C7.51131 5.12207 7.1875 5.43688 7.1875 5.82503C7.18674 6.21392 7.51055 6.52874 7.91055 6.52874Z" fill="#F9FFFF"/>
<path d="M3.08515 6.52874C3.48439 6.52874 3.8082 6.21392 3.8082 5.82503C3.8082 5.43688 3.48439 5.12207 3.08515 5.12207C2.6859 5.12207 2.36133 5.43688 2.36133 5.82503C2.36133 6.21392 2.6859 6.52874 3.08515 6.52874Z" fill="#F9FFFF"/>
</g>
</g>
<mask id="mask59_382_39365" style="mask-type:luminance" maskUnits="userSpaceOnUse" x="0" y="1" width="34" height="32">
<path d="M0.585938 1.04102V32.6297H33.1245L0.585938 1.04102Z" fill="white"/>
</mask>
<g mask="url(#mask59_382_39365)">
<mask id="mask60_382_39365" style="mask-type:luminance" maskUnits="userSpaceOnUse" x="-2" y="15" width="10" height="10">
<path d="M7.90949 15.1934H-1.74023V24.5618H7.90949V15.1934Z" fill="white"/>
</mask>
<g mask="url(#mask60_382_39365)">
<path d="M7.91153 25.2653C8.31077 25.2653 8.63459 24.9505 8.63459 24.5623C8.63459 24.1742 8.31077 23.8594 7.91153 23.8594C7.51229 23.8594 7.18848 24.1742 7.18848 24.5623C7.18772 24.9505 7.51153 25.2653 7.91153 25.2653Z" fill="#F9FFFF"/>
<path d="M3.08612 25.2653C3.48537 25.2653 3.80918 24.9505 3.80918 24.5623C3.80918 24.1742 3.48537 23.8594 3.08612 23.8594C2.68688 23.8594 2.3623 24.1742 2.3623 24.5623C2.3623 24.9505 2.68688 25.2653 3.08612 25.2653Z" fill="#F9FFFF"/>
<path d="M7.91153 20.5817C8.31077 20.5817 8.63459 20.2669 8.63459 19.8787C8.63459 19.4906 8.31077 19.1758 7.91153 19.1758C7.51229 19.1758 7.18848 19.4906 7.18848 19.8787C7.18772 20.2669 7.51153 20.5817 7.91153 20.5817Z" fill="#F9FFFF"/>
<path d="M3.08612 20.5817C3.48537 20.5817 3.80918 20.2669 3.80918 19.8787C3.80918 19.4906 3.48537 19.1758 3.08612 19.1758C2.68688 19.1758 2.3623 19.4906 2.3623 19.8787C2.3623 20.2669 2.68688 20.5817 3.08612 20.5817Z" fill="#F9FFFF"/>
<path d="M0.672272 22.9235C1.07151 22.9235 1.39533 22.6087 1.39533 22.2205C1.39533 21.8324 1.07151 21.5176 0.672272 21.5176C0.27303 21.5176 -0.0507812 21.8324 -0.0507812 22.2205C-0.0507812 22.6087 0.27303 22.9235 0.672272 22.9235Z" fill="#F9FFFF"/>
<path d="M5.49747 22.9235C5.89671 22.9235 6.22129 22.6087 6.22129 22.2205C6.22129 21.8324 5.89671 21.5176 5.49747 21.5176C5.09823 21.5176 4.77441 21.8324 4.77441 22.2205C4.77441 22.6087 5.09823 22.9235 5.49747 22.9235Z" fill="#F9FFFF"/>
<path d="M0.672272 18.2389C1.07151 18.2389 1.39533 17.9241 1.39533 17.536C1.39533 17.1478 1.07151 16.833 0.672272 16.833C0.27303 16.833 -0.0507812 17.1478 -0.0507812 17.536C-0.0507812 17.9241 0.27303 18.2389 0.672272 18.2389Z" fill="#F9FFFF"/>
<path d="M5.49747 18.2389C5.89671 18.2389 6.22129 17.9241 6.22129 17.536C6.22129 17.1478 5.89671 16.833 5.49747 16.833C5.09823 16.833 4.77441 17.1478 4.77441 17.536C4.77441 17.9241 5.09823 18.2389 5.49747 18.2389Z" fill="#F9FFFF"/>
</g>
<mask id="mask61_382_39365" style="mask-type:luminance" maskUnits="userSpaceOnUse" x="-2" y="15" width="10" height="10">
<path d="M7.90949 15.1934H-1.74023V24.5618H7.90949V15.1934Z" fill="white"/>
</mask>
<g mask="url(#mask61_382_39365)">
<path d="M7.91055 15.8979C8.3098 15.8979 8.63361 15.5831 8.63361 15.1942C8.63361 14.806 8.3098 14.4912 7.91055 14.4912C7.51131 14.4912 7.1875 14.806 7.1875 15.1942C7.18674 15.5823 7.51055 15.8979 7.91055 15.8979Z" fill="#F9FFFF"/>
<path d="M3.08515 15.8979C3.48439 15.8979 3.8082 15.5831 3.8082 15.1942C3.8082 14.806 3.48439 14.4912 3.08515 14.4912C2.6859 14.4912 2.36133 14.806 2.36133 15.1942C2.36133 15.5823 2.6859 15.8979 3.08515 15.8979Z" fill="#F9FFFF"/>
</g>
</g>
<mask id="mask62_382_39365" style="mask-type:luminance" maskUnits="userSpaceOnUse" x="0" y="1" width="34" height="32">
<path d="M0.585938 1.04102V32.6297H33.1245L0.585938 1.04102Z" fill="white"/>
</mask>
<g mask="url(#mask62_382_39365)">
<mask id="mask63_382_39365" style="mask-type:luminance" maskUnits="userSpaceOnUse" x="-2" y="24" width="10" height="10">
<path d="M7.90949 24.5615H-1.74023V33.93H7.90949V24.5615Z" fill="white"/>
</mask>
<g mask="url(#mask63_382_39365)">
<path d="M7.91153 29.9499C8.31077 29.9499 8.63459 29.6351 8.63459 29.2469C8.63459 28.8588 8.31077 28.5439 7.91153 28.5439C7.51229 28.5439 7.18848 28.8588 7.18848 29.2469C7.18772 29.6351 7.51153 29.9499 7.91153 29.9499Z" fill="#F9FFFF"/>
<path d="M3.08612 29.9499C3.48537 29.9499 3.80918 29.6351 3.80918 29.2469C3.80918 28.8588 3.48537 28.5439 3.08612 28.5439C2.68688 28.5439 2.3623 28.8588 2.3623 29.2469C2.3623 29.6351 2.68688 29.9499 3.08612 29.9499Z" fill="#F9FFFF"/>
<path d="M0.672272 32.2917C1.07151 32.2917 1.39533 31.9769 1.39533 31.5887C1.39533 31.2006 1.07151 30.8857 0.672272 30.8857C0.27303 30.8857 -0.0507812 31.2006 -0.0507812 31.5887C-0.0507812 31.9769 0.27303 32.2917 0.672272 32.2917Z" fill="#F9FFFF"/>
<path d="M5.49747 32.2917C5.89671 32.2917 6.22129 31.9769 6.22129 31.5887C6.22129 31.2006 5.89671 30.8857 5.49747 30.8857C5.09823 30.8857 4.77441 31.2006 4.77441 31.5887C4.77441 31.9769 5.09823 32.2917 5.49747 32.2917Z" fill="#F9FFFF"/>
<path d="M0.672272 27.6071C1.07151 27.6071 1.39533 27.2923 1.39533 26.9041C1.39533 26.516 1.07151 26.2012 0.672272 26.2012C0.27303 26.2012 -0.0507812 26.516 -0.0507812 26.9041C-0.0507812 27.2923 0.27303 27.6071 0.672272 27.6071Z" fill="#F9FFFF"/>
<path d="M5.49747 27.6071C5.89671 27.6071 6.22129 27.2923 6.22129 26.9041C6.22129 26.516 5.89671 26.2012 5.49747 26.2012C5.09823 26.2012 4.77441 26.516 4.77441 26.9041C4.77441 27.2923 5.09823 27.6071 5.49747 27.6071Z" fill="#F9FFFF"/>
</g>
<mask id="mask64_382_39365" style="mask-type:luminance" maskUnits="userSpaceOnUse" x="-2" y="24" width="10" height="10">
<path d="M7.90949 24.5615H-1.74023V33.93H7.90949V24.5615Z" fill="white"/>
</mask>
<g mask="url(#mask64_382_39365)">
<path d="M7.91055 25.2656C8.3098 25.2656 8.63361 24.9507 8.63361 24.5619C8.63361 24.1737 8.3098 23.8589 7.91055 23.8589C7.51131 23.8589 7.1875 24.1737 7.1875 24.5619C7.18674 24.95 7.51055 25.2656 7.91055 25.2656Z" fill="#F9FFFF"/>
<path d="M3.08515 25.2656C3.48439 25.2656 3.8082 24.9507 3.8082 24.5619C3.8082 24.1737 3.48439 23.8589 3.08515 23.8589C2.6859 23.8589 2.36133 24.1737 2.36133 24.5619C2.36133 24.95 2.6859 25.2656 3.08515 25.2656Z" fill="#F9FFFF"/>
</g>
</g>
<path d="M33.1233 33.1977H0.584762C0.261503 33.1977 0 32.9438 0 32.63V1.04051C0 0.811053 0.142569 0.603802 0.361378 0.516461C0.579425 0.428379 0.83102 0.477231 0.998749 0.639331L33.5373 32.2288C33.7043 32.3909 33.7546 32.6352 33.6639 32.8476C33.5732 33.0593 33.3597 33.1977 33.1233 33.1977ZM1.16953 32.0615H31.7114L1.16953 2.41059V32.0615Z" fill="#F9FFFF"/>
<path d="M0.583984 64.2184V32.6289H33.1226L0.583984 64.2184Z" fill="#81FDE9"/>
<path d="M0.584762 64.7859C0.509284 64.7859 0.433044 64.7719 0.361378 64.7423C0.142569 64.6542 0 64.4477 0 64.2175V32.6288C0 32.3149 0.261503 32.061 0.584762 32.061H33.1233C33.3597 32.061 33.5732 32.1994 33.6639 32.4119C33.7546 32.6243 33.7043 32.8686 33.5373 33.0307L0.998749 64.6194C0.886675 64.7282 0.73648 64.7859 0.584762 64.7859ZM1.16953 33.1972V62.8481L31.7114 33.1972H1.16953Z" fill="#F9FFFF"/>
</svg>
