<svg width="34" height="65" viewBox="0 0 34 65" fill="none" xmlns="http://www.w3.org/2000/svg">
<mask id="mask0_204_8118" style="mask-type:luminance" maskUnits="userSpaceOnUse" x="0" y="1" width="34" height="32">
<path d="M0.585938 1.04053V32.6292H33.1245L0.585938 1.04053Z" fill="white"/>
</mask>
<g mask="url(#mask0_204_8118)">
<mask id="mask1_204_8118" style="mask-type:luminance" maskUnits="userSpaceOnUse" x="27" y="-4" width="10" height="10">
<path d="M36.8626 -3.54443H27.2129V5.82404H36.8626V-3.54443Z" fill="white"/>
</mask>
<g mask="url(#mask1_204_8118)">
<path d="M32.0383 6.52751C32.4375 6.52751 32.7613 6.21269 32.7613 5.82454C32.7613 5.4364 32.4375 5.12158 32.0383 5.12158C31.639 5.12158 31.3145 5.4364 31.3145 5.82454C31.3145 6.21343 31.6383 6.52751 32.0383 6.52751Z" fill="#19191A"/>
<path d="M32.0383 1.84343C32.4375 1.84343 32.7613 1.52861 32.7613 1.14046C32.7613 0.752314 32.4375 0.4375 32.0383 0.4375C31.639 0.4375 31.3145 0.752314 31.3145 1.14046C31.3145 1.52861 31.6383 1.84343 32.0383 1.84343Z" fill="#19191A"/>
<path d="M29.6244 4.18547C30.0237 4.18547 30.3475 3.87065 30.3475 3.4825C30.3475 3.09436 30.0237 2.77954 29.6244 2.77954C29.2252 2.77954 28.9014 3.09436 28.9014 3.4825C28.9014 3.87065 29.2252 4.18547 29.6244 4.18547Z" fill="#19191A"/>
</g>
<mask id="mask2_204_8118" style="mask-type:luminance" maskUnits="userSpaceOnUse" x="27" y="-4" width="10" height="10">
<path d="M36.8626 -3.54443H27.2129V5.82404H36.8626V-3.54443Z" fill="white"/>
</mask>
<g mask="url(#mask2_204_8118)">
<path d="M27.2133 6.52751C27.6118 6.52751 27.9363 6.21269 27.9363 5.82454C27.9363 5.4364 27.6125 5.12158 27.2133 5.12158C26.8141 5.12158 26.4902 5.4364 26.4902 5.82454C26.4902 6.21343 26.8141 6.52751 27.2133 6.52751Z" fill="#19191A"/>
<path d="M27.2133 1.84367C27.6118 1.84367 27.9363 1.52885 27.9363 1.14071C27.9363 0.752558 27.6125 0.437744 27.2133 0.437744C26.8141 0.437744 26.4902 0.752558 26.4902 1.14071C26.4902 1.52885 26.8141 1.84367 27.2133 1.84367Z" fill="#19191A"/>
</g>
</g>
<mask id="mask3_204_8118" style="mask-type:luminance" maskUnits="userSpaceOnUse" x="0" y="1" width="34" height="32">
<path d="M0.585938 1.04053V32.6292H33.1245L0.585938 1.04053Z" fill="white"/>
</mask>
<g mask="url(#mask3_204_8118)">
<mask id="mask4_204_8118" style="mask-type:luminance" maskUnits="userSpaceOnUse" x="27" y="5" width="10" height="11">
<path d="M36.8626 5.82422H27.2129V15.1927H36.8626V5.82422Z" fill="white"/>
</mask>
<g mask="url(#mask4_204_8118)">
<path d="M32.0383 15.8964C32.4375 15.8964 32.7613 15.5816 32.7613 15.1934C32.7613 14.8053 32.4375 14.4905 32.0383 14.4905C31.639 14.4905 31.3145 14.8053 31.3145 15.1934C31.3145 15.5816 31.6383 15.8964 32.0383 15.8964Z" fill="#19191A"/>
<path d="M32.0383 11.2121C32.4375 11.2121 32.7613 10.8973 32.7613 10.5091C32.7613 10.1202 32.4375 9.80615 32.0383 9.80615C31.639 9.80615 31.3145 10.121 31.3145 10.5091C31.3145 10.8973 31.6383 11.2121 32.0383 11.2121Z" fill="#19191A"/>
<path d="M29.6244 13.5541C30.0237 13.5541 30.3475 13.2393 30.3475 12.8512C30.3475 12.463 30.0237 12.1482 29.6244 12.1482C29.2252 12.1482 28.9014 12.463 28.9014 12.8512C28.9014 13.2393 29.2252 13.5541 29.6244 13.5541Z" fill="#19191A"/>
<path d="M29.6244 8.86955C30.0237 8.86955 30.3475 8.55473 30.3475 8.16659C30.3475 7.77844 30.0237 7.46362 29.6244 7.46362C29.2252 7.46362 28.9014 7.77844 28.9014 8.16659C28.9014 8.55473 29.2252 8.86955 29.6244 8.86955Z" fill="#19191A"/>
</g>
<mask id="mask5_204_8118" style="mask-type:luminance" maskUnits="userSpaceOnUse" x="27" y="5" width="10" height="11">
<path d="M36.8626 5.82422H27.2129V15.1927H36.8626V5.82422Z" fill="white"/>
</mask>
<g mask="url(#mask5_204_8118)">
<path d="M27.2133 15.8969C27.6118 15.8969 27.9363 15.5821 27.9363 15.1939C27.9363 14.8058 27.6125 14.491 27.2133 14.491C26.8141 14.491 26.4902 14.8058 26.4902 15.1939C26.4902 15.5821 26.8141 15.8969 27.2133 15.8969Z" fill="#19191A"/>
<path d="M27.2133 11.2126C27.6118 11.2126 27.9363 10.8978 27.9363 10.5096C27.9363 10.1207 27.6125 9.80664 27.2133 9.80664C26.8141 9.80664 26.4902 10.1215 26.4902 10.5096C26.4902 10.8978 26.8141 11.2126 27.2133 11.2126Z" fill="#19191A"/>
</g>
<mask id="mask6_204_8118" style="mask-type:luminance" maskUnits="userSpaceOnUse" x="27" y="5" width="10" height="11">
<path d="M36.8626 5.82422H27.2129V15.1927H36.8626V5.82422Z" fill="white"/>
</mask>
<g mask="url(#mask6_204_8118)">
<path d="M32.0383 6.52825C32.4375 6.52825 32.7613 6.21343 32.7613 5.82454C32.7613 5.4364 32.4375 5.12158 32.0383 5.12158C31.639 5.12158 31.3145 5.4364 31.3145 5.82454C31.3145 6.21343 31.6383 6.52825 32.0383 6.52825Z" fill="#19191A"/>
</g>
<mask id="mask7_204_8118" style="mask-type:luminance" maskUnits="userSpaceOnUse" x="27" y="5" width="10" height="11">
<path d="M36.8626 5.82422H27.2129V15.1927H36.8626V5.82422Z" fill="white"/>
</mask>
<g mask="url(#mask7_204_8118)">
<path d="M27.2133 6.52825C27.6118 6.52825 27.9363 6.21343 27.9363 5.82454C27.9363 5.4364 27.6125 5.12158 27.2133 5.12158C26.8141 5.12158 26.4902 5.4364 26.4902 5.82454C26.4902 6.21343 26.8141 6.52825 27.2133 6.52825Z" fill="#19191A"/>
</g>
</g>
<mask id="mask8_204_8118" style="mask-type:luminance" maskUnits="userSpaceOnUse" x="0" y="1" width="34" height="32">
<path d="M0.585938 1.04053V32.6292H33.1245L0.585938 1.04053Z" fill="white"/>
</mask>
<g mask="url(#mask8_204_8118)">
<mask id="mask9_204_8118" style="mask-type:luminance" maskUnits="userSpaceOnUse" x="27" y="15" width="10" height="10">
<path d="M36.8626 15.1931H27.2129V24.5616H36.8626V15.1931Z" fill="white"/>
</mask>
<g mask="url(#mask9_204_8118)">
<path d="M32.0383 25.2648C32.4375 25.2648 32.7613 24.95 32.7613 24.5619C32.7613 24.1737 32.4375 23.8589 32.0383 23.8589C31.639 23.8589 31.3145 24.1737 31.3145 24.5619C31.3145 24.95 31.6383 25.2648 32.0383 25.2648Z" fill="#19191A"/>
<path d="M32.0383 20.5812C32.4375 20.5812 32.7613 20.2664 32.7613 19.8783C32.7613 19.4901 32.4375 19.1753 32.0383 19.1753C31.639 19.1753 31.3145 19.4901 31.3145 19.8783C31.3145 20.2664 31.6383 20.5812 32.0383 20.5812Z" fill="#19191A"/>
<path d="M29.6244 22.923C30.0237 22.923 30.3475 22.6082 30.3475 22.2201C30.3475 21.8319 30.0237 21.5171 29.6244 21.5171C29.2252 21.5171 28.9014 21.8319 28.9014 22.2201C28.9014 22.6082 29.2252 22.923 29.6244 22.923Z" fill="#19191A"/>
<path d="M29.6244 18.2384C30.0237 18.2384 30.3475 17.9236 30.3475 17.5355C30.3475 17.1473 30.0237 16.8325 29.6244 16.8325C29.2252 16.8325 28.9014 17.1473 28.9014 17.5355C28.9014 17.9236 29.2252 18.2384 29.6244 18.2384Z" fill="#19191A"/>
</g>
<mask id="mask10_204_8118" style="mask-type:luminance" maskUnits="userSpaceOnUse" x="27" y="15" width="10" height="10">
<path d="M36.8626 15.1931H27.2129V24.5616H36.8626V15.1931Z" fill="white"/>
</mask>
<g mask="url(#mask10_204_8118)">
<path d="M27.2133 25.2651C27.6118 25.2651 27.9363 24.9502 27.9363 24.5621C27.9363 24.1739 27.6125 23.8591 27.2133 23.8591C26.8141 23.8591 26.4902 24.1739 26.4902 24.5621C26.4902 24.9502 26.8141 25.2651 27.2133 25.2651Z" fill="#19191A"/>
<path d="M27.2133 20.5812C27.6118 20.5812 27.9363 20.2664 27.9363 19.8783C27.9363 19.4901 27.6125 19.1753 27.2133 19.1753C26.8141 19.1753 26.4902 19.4901 26.4902 19.8783C26.4902 20.2664 26.8141 20.5812 27.2133 20.5812Z" fill="#19191A"/>
</g>
<mask id="mask11_204_8118" style="mask-type:luminance" maskUnits="userSpaceOnUse" x="27" y="15" width="10" height="10">
<path d="M36.8626 15.1931H27.2129V24.5616H36.8626V15.1931Z" fill="white"/>
</mask>
<g mask="url(#mask11_204_8118)">
<path d="M32.0383 15.8974C32.4375 15.8974 32.7613 15.5826 32.7613 15.1937C32.7613 14.8055 32.4375 14.4907 32.0383 14.4907C31.639 14.4907 31.3145 14.8055 31.3145 15.1937C31.3145 15.5818 31.6383 15.8974 32.0383 15.8974Z" fill="#19191A"/>
</g>
<mask id="mask12_204_8118" style="mask-type:luminance" maskUnits="userSpaceOnUse" x="27" y="15" width="10" height="10">
<path d="M36.8626 15.1931H27.2129V24.5616H36.8626V15.1931Z" fill="white"/>
</mask>
<g mask="url(#mask12_204_8118)">
<path d="M27.2133 15.8974C27.6118 15.8974 27.9363 15.5826 27.9363 15.1937C27.9363 14.8055 27.6125 14.4907 27.2133 14.4907C26.8141 14.4907 26.4902 14.8055 26.4902 15.1937C26.4902 15.5818 26.8141 15.8974 27.2133 15.8974Z" fill="#19191A"/>
</g>
</g>
<mask id="mask13_204_8118" style="mask-type:luminance" maskUnits="userSpaceOnUse" x="0" y="1" width="34" height="32">
<path d="M0.585938 1.04053V32.6292H33.1245L0.585938 1.04053Z" fill="white"/>
</mask>
<g mask="url(#mask13_204_8118)">
<mask id="mask14_204_8118" style="mask-type:luminance" maskUnits="userSpaceOnUse" x="27" y="24" width="10" height="10">
<path d="M36.8626 24.561H27.2129V33.9295H36.8626V24.561Z" fill="white"/>
</mask>
<g mask="url(#mask14_204_8118)">
<path d="M32.0383 29.9491C32.4375 29.9491 32.7613 29.6343 32.7613 29.2462C32.7613 28.858 32.4375 28.5432 32.0383 28.5432C31.639 28.5432 31.3145 28.858 31.3145 29.2462C31.3145 29.6343 31.6383 29.9491 32.0383 29.9491Z" fill="#19191A"/>
<path d="M29.6244 32.2909C30.0237 32.2909 30.3475 31.9761 30.3475 31.588C30.3475 31.1998 30.0237 30.885 29.6244 30.885C29.2252 30.885 28.9014 31.1998 28.9014 31.588C28.9014 31.9761 29.2252 32.2909 29.6244 32.2909Z" fill="#19191A"/>
<path d="M29.6244 27.6064C30.0237 27.6064 30.3475 27.2916 30.3475 26.9034C30.3475 26.5153 30.0237 26.2004 29.6244 26.2004C29.2252 26.2004 28.9014 26.5153 28.9014 26.9034C28.9014 27.2916 29.2252 27.6064 29.6244 27.6064Z" fill="#19191A"/>
</g>
<mask id="mask15_204_8118" style="mask-type:luminance" maskUnits="userSpaceOnUse" x="27" y="24" width="10" height="10">
<path d="M36.8626 24.561H27.2129V33.9295H36.8626V24.561Z" fill="white"/>
</mask>
<g mask="url(#mask15_204_8118)">
<path d="M27.2133 29.9494C27.6118 29.9494 27.9363 29.6346 27.9363 29.2464C27.9363 28.8583 27.6125 28.5435 27.2133 28.5435C26.8141 28.5435 26.4902 28.8583 26.4902 29.2464C26.4902 29.6346 26.8141 29.9494 27.2133 29.9494Z" fill="#19191A"/>
</g>
<mask id="mask16_204_8118" style="mask-type:luminance" maskUnits="userSpaceOnUse" x="27" y="24" width="10" height="10">
<path d="M36.8626 24.561H27.2129V33.9295H36.8626V24.561Z" fill="white"/>
</mask>
<g mask="url(#mask16_204_8118)">
<path d="M32.0383 25.2651C32.4375 25.2651 32.7613 24.9503 32.7613 24.5614C32.7613 24.1732 32.4375 23.8584 32.0383 23.8584C31.639 23.8584 31.3145 24.1732 31.3145 24.5614C31.3145 24.9495 31.6383 25.2651 32.0383 25.2651Z" fill="#19191A"/>
</g>
<mask id="mask17_204_8118" style="mask-type:luminance" maskUnits="userSpaceOnUse" x="27" y="24" width="10" height="10">
<path d="M36.8626 24.561H27.2129V33.9295H36.8626V24.561Z" fill="white"/>
</mask>
<g mask="url(#mask17_204_8118)">
<path d="M27.2133 25.2651C27.6118 25.2651 27.9363 24.9503 27.9363 24.5614C27.9363 24.1732 27.6125 23.8584 27.2133 23.8584C26.8141 23.8584 26.4902 24.1732 26.4902 24.5614C26.4902 24.9495 26.8141 25.2651 27.2133 25.2651Z" fill="#19191A"/>
</g>
</g>
<mask id="mask18_204_8118" style="mask-type:luminance" maskUnits="userSpaceOnUse" x="0" y="1" width="34" height="32">
<path d="M0.585938 1.04053V32.6292H33.1245L0.585938 1.04053Z" fill="white"/>
</mask>
<g mask="url(#mask18_204_8118)">
<mask id="mask19_204_8118" style="mask-type:luminance" maskUnits="userSpaceOnUse" x="17" y="-4" width="11" height="10">
<path d="M27.2103 -3.54443H17.5605V5.82404H27.2103V-3.54443Z" fill="white"/>
</mask>
<g mask="url(#mask19_204_8118)">
<path d="M27.2113 6.52751C27.6098 6.52751 27.9344 6.21269 27.9344 5.82454C27.9344 5.4364 27.6106 5.12158 27.2113 5.12158C26.8121 5.12158 26.4883 5.4364 26.4883 5.82454C26.4883 6.21343 26.8121 6.52751 27.2113 6.52751Z" fill="#19191A"/>
<path d="M22.3869 6.52751C22.7861 6.52751 23.11 6.21269 23.11 5.82454C23.11 5.4364 22.7861 5.12158 22.3869 5.12158C21.9869 5.12158 21.6631 5.4364 21.6631 5.82454C21.6631 6.21343 21.9869 6.52751 22.3869 6.52751Z" fill="#19191A"/>
<path d="M27.2113 1.84343C27.6098 1.84343 27.9344 1.52861 27.9344 1.14046C27.9344 0.752314 27.6106 0.4375 27.2113 0.4375C26.8121 0.4375 26.4883 0.752314 26.4883 1.14046C26.4883 1.52861 26.8121 1.84343 27.2113 1.84343Z" fill="#19191A"/>
<path d="M22.3869 1.84343C22.7861 1.84343 23.11 1.52861 23.11 1.14046C23.11 0.752314 22.7861 0.4375 22.3869 0.4375C21.9869 0.4375 21.6631 0.752314 21.6631 1.14046C21.6631 1.52861 21.9869 1.84343 22.3869 1.84343Z" fill="#19191A"/>
<path d="M19.9731 4.18547C20.3723 4.18547 20.6961 3.87065 20.6961 3.4825C20.6961 3.09436 20.3723 2.77954 19.9731 2.77954C19.5738 2.77954 19.25 3.09436 19.25 3.4825C19.25 3.87065 19.573 4.18547 19.9731 4.18547Z" fill="#19191A"/>
<path d="M24.7973 4.18547C25.1965 4.18547 25.5211 3.87065 25.5211 3.4825C25.5211 3.09436 25.1965 2.77954 24.7973 2.77954C24.398 2.77954 24.0742 3.09436 24.0742 3.4825C24.0742 3.87065 24.398 4.18547 24.7973 4.18547Z" fill="#19191A"/>
</g>
<mask id="mask20_204_8118" style="mask-type:luminance" maskUnits="userSpaceOnUse" x="17" y="-4" width="11" height="10">
<path d="M27.2103 -3.54443H17.5605V5.82404H27.2103V-3.54443Z" fill="white"/>
</mask>
<g mask="url(#mask20_204_8118)">
<path d="M17.56 6.52751C17.9584 6.52751 18.283 6.21269 18.283 5.82454C18.283 5.4364 17.9592 5.12158 17.56 5.12158C17.1607 5.12158 16.8369 5.4364 16.8369 5.82454C16.8369 6.21343 17.16 6.52751 17.56 6.52751Z" fill="#19191A"/>
<path d="M17.56 1.84367C17.9584 1.84367 18.283 1.52885 18.283 1.14071C18.283 0.752558 17.9592 0.437744 17.56 0.437744C17.1607 0.437744 16.8369 0.752558 16.8369 1.14071C16.8369 1.52885 17.16 1.84367 17.56 1.84367Z" fill="#19191A"/>
</g>
</g>
<mask id="mask21_204_8118" style="mask-type:luminance" maskUnits="userSpaceOnUse" x="0" y="1" width="34" height="32">
<path d="M0.585938 1.04053V32.6292H33.1245L0.585938 1.04053Z" fill="white"/>
</mask>
<g mask="url(#mask21_204_8118)">
<mask id="mask22_204_8118" style="mask-type:luminance" maskUnits="userSpaceOnUse" x="17" y="5" width="11" height="11">
<path d="M27.2103 5.82422H17.5605V15.1927H27.2103V5.82422Z" fill="white"/>
</mask>
<g mask="url(#mask22_204_8118)">
<path d="M27.2113 15.8964C27.6098 15.8964 27.9344 15.5816 27.9344 15.1934C27.9344 14.8053 27.6106 14.4905 27.2113 14.4905C26.8121 14.4905 26.4883 14.8053 26.4883 15.1934C26.4883 15.5816 26.8121 15.8964 27.2113 15.8964Z" fill="#19191A"/>
<path d="M22.3869 15.8964C22.7861 15.8964 23.11 15.5816 23.11 15.1934C23.11 14.8053 22.7861 14.4905 22.3869 14.4905C21.9869 14.4905 21.6631 14.8053 21.6631 15.1934C21.6631 15.5816 21.9869 15.8964 22.3869 15.8964Z" fill="#19191A"/>
<path d="M27.2113 11.2121C27.6098 11.2121 27.9344 10.8973 27.9344 10.5091C27.9344 10.1202 27.6106 9.80615 27.2113 9.80615C26.8121 9.80615 26.4883 10.121 26.4883 10.5091C26.4883 10.8973 26.8121 11.2121 27.2113 11.2121Z" fill="#19191A"/>
<path d="M22.3869 11.2121C22.7861 11.2121 23.11 10.8973 23.11 10.5091C23.11 10.1202 22.7861 9.80615 22.3869 9.80615C21.9869 9.80615 21.6631 10.121 21.6631 10.5091C21.6631 10.8973 21.9869 11.2121 22.3869 11.2121Z" fill="#19191A"/>
<path d="M19.9731 13.5541C20.3723 13.5541 20.6961 13.2393 20.6961 12.8512C20.6961 12.463 20.3723 12.1482 19.9731 12.1482C19.5738 12.1482 19.25 12.463 19.25 12.8512C19.25 13.2393 19.573 13.5541 19.9731 13.5541Z" fill="#19191A"/>
<path d="M24.7973 13.5541C25.1965 13.5541 25.5211 13.2393 25.5211 12.8512C25.5211 12.463 25.1965 12.1482 24.7973 12.1482C24.398 12.1482 24.0742 12.463 24.0742 12.8512C24.0742 13.2393 24.398 13.5541 24.7973 13.5541Z" fill="#19191A"/>
<path d="M19.9731 8.86955C20.3723 8.86955 20.6961 8.55473 20.6961 8.16659C20.6961 7.77844 20.3723 7.46362 19.9731 7.46362C19.5738 7.46362 19.25 7.77844 19.25 8.16659C19.25 8.55473 19.573 8.86955 19.9731 8.86955Z" fill="#19191A"/>
<path d="M24.7973 8.86955C25.1965 8.86955 25.5211 8.55473 25.5211 8.16659C25.5211 7.77844 25.1965 7.46362 24.7973 7.46362C24.398 7.46362 24.0742 7.77844 24.0742 8.16659C24.0742 8.55473 24.398 8.86955 24.7973 8.86955Z" fill="#19191A"/>
</g>
<mask id="mask23_204_8118" style="mask-type:luminance" maskUnits="userSpaceOnUse" x="17" y="5" width="11" height="11">
<path d="M27.2103 5.82422H17.5605V15.1927H27.2103V5.82422Z" fill="white"/>
</mask>
<g mask="url(#mask23_204_8118)">
<path d="M17.56 15.8969C17.9584 15.8969 18.283 15.5821 18.283 15.1939C18.283 14.8058 17.9592 14.491 17.56 14.491C17.1607 14.491 16.8369 14.8058 16.8369 15.1939C16.8369 15.5821 17.16 15.8969 17.56 15.8969Z" fill="#19191A"/>
<path d="M17.56 11.2126C17.9584 11.2126 18.283 10.8978 18.283 10.5096C18.283 10.1207 17.9592 9.80664 17.56 9.80664C17.1607 9.80664 16.8369 10.1215 16.8369 10.5096C16.8369 10.8978 17.16 11.2126 17.56 11.2126Z" fill="#19191A"/>
</g>
<mask id="mask24_204_8118" style="mask-type:luminance" maskUnits="userSpaceOnUse" x="17" y="5" width="11" height="11">
<path d="M27.2103 5.82422H17.5605V15.1927H27.2103V5.82422Z" fill="white"/>
</mask>
<g mask="url(#mask24_204_8118)">
<path d="M27.2094 6.52825C27.6079 6.52825 27.9324 6.21343 27.9324 5.82454C27.9324 5.4364 27.6086 5.12158 27.2094 5.12158C26.8101 5.12158 26.4863 5.4364 26.4863 5.82454C26.4863 6.21343 26.8101 6.52825 27.2094 6.52825Z" fill="#19191A"/>
<path d="M22.3849 6.52825C22.7842 6.52825 23.108 6.21343 23.108 5.82454C23.108 5.4364 22.7842 5.12158 22.3849 5.12158C21.9849 5.12158 21.6611 5.4364 21.6611 5.82454C21.6611 6.21343 21.9849 6.52825 22.3849 6.52825Z" fill="#19191A"/>
</g>
<mask id="mask25_204_8118" style="mask-type:luminance" maskUnits="userSpaceOnUse" x="17" y="5" width="11" height="11">
<path d="M27.2103 5.82422H17.5605V15.1927H27.2103V5.82422Z" fill="white"/>
</mask>
<g mask="url(#mask25_204_8118)">
<path d="M17.56 6.52849C17.9584 6.52849 18.283 6.21368 18.283 5.82479C18.283 5.43664 17.9592 5.12183 17.56 5.12183C17.1607 5.12183 16.8369 5.43664 16.8369 5.82479C16.8369 6.21368 17.16 6.52849 17.56 6.52849Z" fill="#19191A"/>
</g>
</g>
<mask id="mask26_204_8118" style="mask-type:luminance" maskUnits="userSpaceOnUse" x="0" y="1" width="34" height="32">
<path d="M0.585938 1.04053V32.6292H33.1245L0.585938 1.04053Z" fill="white"/>
</mask>
<g mask="url(#mask26_204_8118)">
<mask id="mask27_204_8118" style="mask-type:luminance" maskUnits="userSpaceOnUse" x="17" y="15" width="11" height="10">
<path d="M27.2103 15.1931H17.5605V24.5616H27.2103V15.1931Z" fill="white"/>
</mask>
<g mask="url(#mask27_204_8118)">
<path d="M27.2113 25.2648C27.6098 25.2648 27.9344 24.95 27.9344 24.5619C27.9344 24.1737 27.6106 23.8589 27.2113 23.8589C26.8121 23.8589 26.4883 24.1737 26.4883 24.5619C26.4883 24.95 26.8121 25.2648 27.2113 25.2648Z" fill="#19191A"/>
<path d="M22.3869 25.2648C22.7861 25.2648 23.11 24.95 23.11 24.5619C23.11 24.1737 22.7861 23.8589 22.3869 23.8589C21.9869 23.8589 21.6631 24.1737 21.6631 24.5619C21.6631 24.95 21.9869 25.2648 22.3869 25.2648Z" fill="#19191A"/>
<path d="M27.2113 20.5812C27.6098 20.5812 27.9344 20.2664 27.9344 19.8783C27.9344 19.4901 27.6106 19.1753 27.2113 19.1753C26.8121 19.1753 26.4883 19.4901 26.4883 19.8783C26.4883 20.2664 26.8121 20.5812 27.2113 20.5812Z" fill="#19191A"/>
<path d="M22.3869 20.5812C22.7861 20.5812 23.11 20.2664 23.11 19.8783C23.11 19.4901 22.7861 19.1753 22.3869 19.1753C21.9869 19.1753 21.6631 19.4901 21.6631 19.8783C21.6631 20.2664 21.9869 20.5812 22.3869 20.5812Z" fill="#19191A"/>
<path d="M19.9731 22.923C20.3723 22.923 20.6961 22.6082 20.6961 22.2201C20.6961 21.8319 20.3723 21.5171 19.9731 21.5171C19.5738 21.5171 19.25 21.8319 19.25 22.2201C19.25 22.6082 19.573 22.923 19.9731 22.923Z" fill="#19191A"/>
<path d="M24.7973 22.923C25.1965 22.923 25.5211 22.6082 25.5211 22.2201C25.5211 21.8319 25.1965 21.5171 24.7973 21.5171C24.398 21.5171 24.0742 21.8319 24.0742 22.2201C24.0742 22.6082 24.398 22.923 24.7973 22.923Z" fill="#19191A"/>
<path d="M19.9731 18.2384C20.3723 18.2384 20.6961 17.9236 20.6961 17.5355C20.6961 17.1473 20.3723 16.8325 19.9731 16.8325C19.5738 16.8325 19.25 17.1473 19.25 17.5355C19.25 17.9236 19.573 18.2384 19.9731 18.2384Z" fill="#19191A"/>
<path d="M24.7973 18.2384C25.1965 18.2384 25.5211 17.9236 25.5211 17.5355C25.5211 17.1473 25.1965 16.8325 24.7973 16.8325C24.398 16.8325 24.0742 17.1473 24.0742 17.5355C24.0742 17.9236 24.398 18.2384 24.7973 18.2384Z" fill="#19191A"/>
</g>
<mask id="mask28_204_8118" style="mask-type:luminance" maskUnits="userSpaceOnUse" x="17" y="15" width="11" height="10">
<path d="M27.2103 15.1931H17.5605V24.5616H27.2103V15.1931Z" fill="white"/>
</mask>
<g mask="url(#mask28_204_8118)">
<path d="M17.56 25.2651C17.9584 25.2651 18.283 24.9502 18.283 24.5621C18.283 24.1739 17.9592 23.8591 17.56 23.8591C17.1607 23.8591 16.8369 24.1739 16.8369 24.5621C16.8369 24.9502 17.16 25.2651 17.56 25.2651Z" fill="#19191A"/>
<path d="M17.56 20.5812C17.9584 20.5812 18.283 20.2664 18.283 19.8783C18.283 19.4901 17.9592 19.1753 17.56 19.1753C17.1607 19.1753 16.8369 19.4901 16.8369 19.8783C16.8369 20.2664 17.16 20.5812 17.56 20.5812Z" fill="#19191A"/>
</g>
<mask id="mask29_204_8118" style="mask-type:luminance" maskUnits="userSpaceOnUse" x="17" y="15" width="11" height="10">
<path d="M27.2103 15.1931H17.5605V24.5616H27.2103V15.1931Z" fill="white"/>
</mask>
<g mask="url(#mask29_204_8118)">
<path d="M27.2094 15.8974C27.6079 15.8974 27.9324 15.5826 27.9324 15.1937C27.9324 14.8055 27.6086 14.4907 27.2094 14.4907C26.8101 14.4907 26.4863 14.8055 26.4863 15.1937C26.4863 15.5818 26.8101 15.8974 27.2094 15.8974Z" fill="#19191A"/>
<path d="M22.3849 15.8974C22.7842 15.8974 23.108 15.5826 23.108 15.1937C23.108 14.8055 22.7842 14.4907 22.3849 14.4907C21.9849 14.4907 21.6611 14.8055 21.6611 15.1937C21.6611 15.5818 21.9849 15.8974 22.3849 15.8974Z" fill="#19191A"/>
</g>
<mask id="mask30_204_8118" style="mask-type:luminance" maskUnits="userSpaceOnUse" x="17" y="15" width="11" height="10">
<path d="M27.2103 15.1931H17.5605V24.5616H27.2103V15.1931Z" fill="white"/>
</mask>
<g mask="url(#mask30_204_8118)">
<path d="M17.56 15.8974C17.9584 15.8974 18.283 15.5826 18.283 15.1937C18.283 14.8055 17.9592 14.4907 17.56 14.4907C17.1607 14.4907 16.8369 14.8055 16.8369 15.1937C16.8369 15.5818 17.16 15.8974 17.56 15.8974Z" fill="#19191A"/>
</g>
</g>
<mask id="mask31_204_8118" style="mask-type:luminance" maskUnits="userSpaceOnUse" x="0" y="1" width="34" height="32">
<path d="M0.585938 1.04053V32.6292H33.1245L0.585938 1.04053Z" fill="white"/>
</mask>
<g mask="url(#mask31_204_8118)">
<mask id="mask32_204_8118" style="mask-type:luminance" maskUnits="userSpaceOnUse" x="17" y="24" width="11" height="10">
<path d="M27.2103 24.561H17.5605V33.9295H27.2103V24.561Z" fill="white"/>
</mask>
<g mask="url(#mask32_204_8118)">
<path d="M27.2113 29.9491C27.6098 29.9491 27.9344 29.6343 27.9344 29.2462C27.9344 28.858 27.6106 28.5432 27.2113 28.5432C26.8121 28.5432 26.4883 28.858 26.4883 29.2462C26.4883 29.6343 26.8121 29.9491 27.2113 29.9491Z" fill="#19191A"/>
<path d="M22.3869 29.9491C22.7861 29.9491 23.11 29.6343 23.11 29.2462C23.11 28.858 22.7861 28.5432 22.3869 28.5432C21.9869 28.5432 21.6631 28.858 21.6631 29.2462C21.6631 29.6343 21.9869 29.9491 22.3869 29.9491Z" fill="#19191A"/>
<path d="M19.9731 32.2909C20.3723 32.2909 20.6961 31.9761 20.6961 31.588C20.6961 31.1998 20.3723 30.885 19.9731 30.885C19.5738 30.885 19.25 31.1998 19.25 31.588C19.25 31.9761 19.573 32.2909 19.9731 32.2909Z" fill="#19191A"/>
<path d="M24.7973 32.2909C25.1965 32.2909 25.5211 31.9761 25.5211 31.588C25.5211 31.1998 25.1965 30.885 24.7973 30.885C24.398 30.885 24.0742 31.1998 24.0742 31.588C24.0742 31.9761 24.398 32.2909 24.7973 32.2909Z" fill="#19191A"/>
<path d="M19.9731 27.6064C20.3723 27.6064 20.6961 27.2916 20.6961 26.9034C20.6961 26.5153 20.3723 26.2004 19.9731 26.2004C19.5738 26.2004 19.25 26.5153 19.25 26.9034C19.25 27.2916 19.573 27.6064 19.9731 27.6064Z" fill="#19191A"/>
<path d="M24.7973 27.6064C25.1965 27.6064 25.5211 27.2916 25.5211 26.9034C25.5211 26.5153 25.1965 26.2004 24.7973 26.2004C24.398 26.2004 24.0742 26.5153 24.0742 26.9034C24.0742 27.2916 24.398 27.6064 24.7973 27.6064Z" fill="#19191A"/>
</g>
<mask id="mask33_204_8118" style="mask-type:luminance" maskUnits="userSpaceOnUse" x="17" y="24" width="11" height="10">
<path d="M27.2103 24.561H17.5605V33.9295H27.2103V24.561Z" fill="white"/>
</mask>
<g mask="url(#mask33_204_8118)">
<path d="M17.56 29.9494C17.9584 29.9494 18.283 29.6346 18.283 29.2464C18.283 28.8583 17.9592 28.5435 17.56 28.5435C17.1607 28.5435 16.8369 28.8583 16.8369 29.2464C16.8369 29.6346 17.16 29.9494 17.56 29.9494Z" fill="#19191A"/>
</g>
<mask id="mask34_204_8118" style="mask-type:luminance" maskUnits="userSpaceOnUse" x="17" y="24" width="11" height="10">
<path d="M27.2103 24.561H17.5605V33.9295H27.2103V24.561Z" fill="white"/>
</mask>
<g mask="url(#mask34_204_8118)">
<path d="M27.2094 25.2651C27.6079 25.2651 27.9324 24.9503 27.9324 24.5614C27.9324 24.1732 27.6086 23.8584 27.2094 23.8584C26.8101 23.8584 26.4863 24.1732 26.4863 24.5614C26.4863 24.9495 26.8101 25.2651 27.2094 25.2651Z" fill="#19191A"/>
<path d="M22.3849 25.2651C22.7842 25.2651 23.108 24.9503 23.108 24.5614C23.108 24.1732 22.7842 23.8584 22.3849 23.8584C21.9849 23.8584 21.6611 24.1732 21.6611 24.5614C21.6611 24.9495 21.9849 25.2651 22.3849 25.2651Z" fill="#19191A"/>
</g>
<mask id="mask35_204_8118" style="mask-type:luminance" maskUnits="userSpaceOnUse" x="17" y="24" width="11" height="10">
<path d="M27.2103 24.561H17.5605V33.9295H27.2103V24.561Z" fill="white"/>
</mask>
<g mask="url(#mask35_204_8118)">
<path d="M17.56 25.2651C17.9584 25.2651 18.283 24.9503 18.283 24.5614C18.283 24.1732 17.9592 23.8584 17.56 23.8584C17.1607 23.8584 16.8369 24.1732 16.8369 24.5614C16.8369 24.9495 17.16 25.2651 17.56 25.2651Z" fill="#19191A"/>
</g>
</g>
<mask id="mask36_204_8118" style="mask-type:luminance" maskUnits="userSpaceOnUse" x="0" y="1" width="34" height="32">
<path d="M0.585938 1.04053V32.6292H33.1245L0.585938 1.04053Z" fill="white"/>
</mask>
<g mask="url(#mask36_204_8118)">
<mask id="mask37_204_8118" style="mask-type:luminance" maskUnits="userSpaceOnUse" x="7" y="-4" width="11" height="10">
<path d="M17.5628 -3.54443H7.91309V5.82404H17.5628V-3.54443Z" fill="white"/>
</mask>
<g mask="url(#mask37_204_8118)">
<path d="M17.5629 6.52751C17.9614 6.52751 18.286 6.21269 18.286 5.82454C18.286 5.4364 17.9621 5.12158 17.5629 5.12158C17.1637 5.12158 16.8398 5.4364 16.8398 5.82454C16.8398 6.21343 17.1629 6.52751 17.5629 6.52751Z" fill="#19191A"/>
<path d="M12.7375 6.52751C13.1367 6.52751 13.4605 6.21269 13.4605 5.82454C13.4605 5.4364 13.1367 5.12158 12.7375 5.12158C12.3382 5.12158 12.0137 5.4364 12.0137 5.82454C12.0144 6.21343 12.3382 6.52751 12.7375 6.52751Z" fill="#19191A"/>
<path d="M17.5629 1.84343C17.9614 1.84343 18.286 1.52861 18.286 1.14046C18.286 0.752314 17.9621 0.4375 17.5629 0.4375C17.1637 0.4375 16.8398 0.752314 16.8398 1.14046C16.8398 1.52861 17.1629 1.84343 17.5629 1.84343Z" fill="#19191A"/>
<path d="M12.7375 1.84343C13.1367 1.84343 13.4605 1.52861 13.4605 1.14046C13.4605 0.752314 13.1367 0.4375 12.7375 0.4375C12.3382 0.4375 12.0137 0.752314 12.0137 1.14046C12.0144 1.52861 12.3382 1.84343 12.7375 1.84343Z" fill="#19191A"/>
<path d="M10.3246 4.18547C10.7239 4.18547 11.0477 3.87065 11.0477 3.4825C11.0477 3.09436 10.7239 2.77954 10.3246 2.77954C9.92538 2.77954 9.60156 3.09436 9.60156 3.4825C9.6008 3.87065 9.92462 4.18547 10.3246 4.18547Z" fill="#19191A"/>
<path d="M15.1488 4.18547C15.5481 4.18547 15.8727 3.87065 15.8727 3.4825C15.8727 3.09436 15.5481 2.77954 15.1488 2.77954C14.7496 2.77954 14.4258 3.09436 14.4258 3.4825C14.4258 3.87065 14.7496 4.18547 15.1488 4.18547Z" fill="#19191A"/>
</g>
<mask id="mask38_204_8118" style="mask-type:luminance" maskUnits="userSpaceOnUse" x="7" y="-4" width="11" height="10">
<path d="M17.5628 -3.54443H7.91309V5.82404H17.5628V-3.54443Z" fill="white"/>
</mask>
<g mask="url(#mask38_204_8118)">
<path d="M7.91251 6.52751C8.31175 6.52751 8.63556 6.21269 8.63556 5.82454C8.63556 5.4364 8.31175 5.12158 7.91251 5.12158C7.51327 5.12158 7.18945 5.4364 7.18945 5.82454C7.18869 6.21343 7.5125 6.52751 7.91251 6.52751Z" fill="#19191A"/>
<path d="M7.91251 1.84367C8.31175 1.84367 8.63556 1.52885 8.63556 1.14071C8.63556 0.752558 8.31175 0.437744 7.91251 0.437744C7.51327 0.437744 7.18945 0.752558 7.18945 1.14071C7.18869 1.52885 7.5125 1.84367 7.91251 1.84367Z" fill="#19191A"/>
</g>
</g>
<mask id="mask39_204_8118" style="mask-type:luminance" maskUnits="userSpaceOnUse" x="0" y="1" width="34" height="32">
<path d="M0.585938 1.04053V32.6292H33.1245L0.585938 1.04053Z" fill="white"/>
</mask>
<g mask="url(#mask39_204_8118)">
<mask id="mask40_204_8118" style="mask-type:luminance" maskUnits="userSpaceOnUse" x="7" y="5" width="11" height="11">
<path d="M17.5628 5.82422H7.91309V15.1927H17.5628V5.82422Z" fill="white"/>
</mask>
<g mask="url(#mask40_204_8118)">
<path d="M17.5629 15.8964C17.9614 15.8964 18.286 15.5816 18.286 15.1934C18.286 14.8053 17.9621 14.4905 17.5629 14.4905C17.1637 14.4905 16.8398 14.8053 16.8398 15.1934C16.8398 15.5816 17.1629 15.8964 17.5629 15.8964Z" fill="#19191A"/>
<path d="M12.7375 15.8964C13.1367 15.8964 13.4605 15.5816 13.4605 15.1934C13.4605 14.8053 13.1367 14.4905 12.7375 14.4905C12.3382 14.4905 12.0137 14.8053 12.0137 15.1934C12.0137 15.5816 12.3382 15.8964 12.7375 15.8964Z" fill="#19191A"/>
<path d="M17.5629 11.2121C17.9614 11.2121 18.286 10.8973 18.286 10.5091C18.286 10.1202 17.9621 9.80615 17.5629 9.80615C17.1637 9.80615 16.8398 10.121 16.8398 10.5091C16.8398 10.8973 17.1629 11.2121 17.5629 11.2121Z" fill="#19191A"/>
<path d="M12.7375 11.2121C13.1367 11.2121 13.4605 10.8973 13.4605 10.5091C13.4605 10.1202 13.1367 9.80615 12.7375 9.80615C12.3382 9.80615 12.0137 10.121 12.0137 10.5091C12.0144 10.8973 12.3382 11.2121 12.7375 11.2121Z" fill="#19191A"/>
<path d="M10.3246 13.5541C10.7239 13.5541 11.0477 13.2393 11.0477 12.8512C11.0477 12.463 10.7239 12.1482 10.3246 12.1482C9.92538 12.1482 9.60156 12.463 9.60156 12.8512C9.6008 13.2393 9.92462 13.5541 10.3246 13.5541Z" fill="#19191A"/>
<path d="M15.1488 13.5541C15.5481 13.5541 15.8727 13.2393 15.8727 12.8512C15.8727 12.463 15.5481 12.1482 15.1488 12.1482C14.7496 12.1482 14.4258 12.463 14.4258 12.8512C14.4258 13.2393 14.7496 13.5541 15.1488 13.5541Z" fill="#19191A"/>
<path d="M10.3246 8.86955C10.7239 8.86955 11.0477 8.55473 11.0477 8.16659C11.0477 7.77844 10.7239 7.46362 10.3246 7.46362C9.92538 7.46362 9.60156 7.77844 9.60156 8.16659C9.6008 8.55473 9.92462 8.86955 10.3246 8.86955Z" fill="#19191A"/>
<path d="M15.1488 8.86955C15.5481 8.86955 15.8727 8.55473 15.8727 8.16659C15.8727 7.77844 15.5481 7.46362 15.1488 7.46362C14.7496 7.46362 14.4258 7.77844 14.4258 8.16659C14.4258 8.55473 14.7496 8.86955 15.1488 8.86955Z" fill="#19191A"/>
</g>
<mask id="mask41_204_8118" style="mask-type:luminance" maskUnits="userSpaceOnUse" x="7" y="5" width="11" height="11">
<path d="M17.5628 5.82422H7.91309V15.1927H17.5628V5.82422Z" fill="white"/>
</mask>
<g mask="url(#mask41_204_8118)">
<path d="M7.91251 15.8966C8.31175 15.8966 8.63556 15.5818 8.63556 15.1937C8.63556 14.8055 8.31175 14.4907 7.91251 14.4907C7.51326 14.4907 7.18945 14.8055 7.18945 15.1937C7.18945 15.5818 7.5125 15.8966 7.91251 15.8966Z" fill="#19191A"/>
<path d="M7.91251 11.2126C8.31175 11.2126 8.63556 10.8978 8.63556 10.5096C8.63556 10.1207 8.31175 9.80664 7.91251 9.80664C7.51327 9.80664 7.18945 10.1215 7.18945 10.5096C7.18869 10.8978 7.5125 11.2126 7.91251 11.2126Z" fill="#19191A"/>
</g>
<mask id="mask42_204_8118" style="mask-type:luminance" maskUnits="userSpaceOnUse" x="7" y="5" width="11" height="11">
<path d="M17.5628 5.82422H7.91309V15.1927H17.5628V5.82422Z" fill="white"/>
</mask>
<g mask="url(#mask42_204_8118)">
<path d="M17.5629 6.52825C17.9614 6.52825 18.286 6.21343 18.286 5.82454C18.286 5.4364 17.9621 5.12158 17.5629 5.12158C17.1637 5.12158 16.8398 5.4364 16.8398 5.82454C16.8398 6.21343 17.1629 6.52825 17.5629 6.52825Z" fill="#19191A"/>
<path d="M12.7385 6.52825C13.1377 6.52825 13.4615 6.21343 13.4615 5.82454C13.4615 5.4364 13.1377 5.12158 12.7385 5.12158C12.3392 5.12158 12.0146 5.4364 12.0146 5.82454C12.0154 6.21343 12.3392 6.52825 12.7385 6.52825Z" fill="#19191A"/>
</g>
<mask id="mask43_204_8118" style="mask-type:luminance" maskUnits="userSpaceOnUse" x="7" y="5" width="11" height="11">
<path d="M17.5628 5.82422H7.91309V15.1927H17.5628V5.82422Z" fill="white"/>
</mask>
<g mask="url(#mask43_204_8118)">
<path d="M7.91251 6.52825C8.31175 6.52825 8.63556 6.21343 8.63556 5.82454C8.63556 5.4364 8.31175 5.12158 7.91251 5.12158C7.51327 5.12158 7.18945 5.4364 7.18945 5.82454C7.18869 6.21343 7.5125 6.52825 7.91251 6.52825Z" fill="#19191A"/>
</g>
</g>
<mask id="mask44_204_8118" style="mask-type:luminance" maskUnits="userSpaceOnUse" x="0" y="1" width="34" height="32">
<path d="M0.585938 1.04053V32.6292H33.1245L0.585938 1.04053Z" fill="white"/>
</mask>
<g mask="url(#mask44_204_8118)">
<mask id="mask45_204_8118" style="mask-type:luminance" maskUnits="userSpaceOnUse" x="7" y="15" width="11" height="10">
<path d="M17.5628 15.1931H7.91309V24.5616H17.5628V15.1931Z" fill="white"/>
</mask>
<g mask="url(#mask45_204_8118)">
<path d="M17.5629 25.2648C17.9614 25.2648 18.286 24.95 18.286 24.5619C18.286 24.1737 17.9621 23.8589 17.5629 23.8589C17.1637 23.8589 16.8398 24.1737 16.8398 24.5619C16.8398 24.95 17.1629 25.2648 17.5629 25.2648Z" fill="#19191A"/>
<path d="M12.7375 25.2648C13.1367 25.2648 13.4605 24.95 13.4605 24.5619C13.4605 24.1737 13.1367 23.8589 12.7375 23.8589C12.3382 23.8589 12.0137 24.1737 12.0137 24.5619C12.0144 24.95 12.3382 25.2648 12.7375 25.2648Z" fill="#19191A"/>
<path d="M17.5629 20.5812C17.9614 20.5812 18.286 20.2664 18.286 19.8783C18.286 19.4901 17.9621 19.1753 17.5629 19.1753C17.1637 19.1753 16.8398 19.4901 16.8398 19.8783C16.8398 20.2664 17.1629 20.5812 17.5629 20.5812Z" fill="#19191A"/>
<path d="M12.7375 20.5812C13.1367 20.5812 13.4605 20.2664 13.4605 19.8783C13.4605 19.4901 13.1367 19.1753 12.7375 19.1753C12.3382 19.1753 12.0137 19.4901 12.0137 19.8783C12.0144 20.2664 12.3382 20.5812 12.7375 20.5812Z" fill="#19191A"/>
<path d="M10.3246 22.923C10.7239 22.923 11.0477 22.6082 11.0477 22.2201C11.0477 21.8319 10.7239 21.5171 10.3246 21.5171C9.92538 21.5171 9.60156 21.8319 9.60156 22.2201C9.6008 22.6082 9.92462 22.923 10.3246 22.923Z" fill="#19191A"/>
<path d="M15.1488 22.923C15.5481 22.923 15.8727 22.6082 15.8727 22.2201C15.8727 21.8319 15.5481 21.5171 15.1488 21.5171C14.7496 21.5171 14.4258 21.8319 14.4258 22.2201C14.4258 22.6082 14.7496 22.923 15.1488 22.923Z" fill="#19191A"/>
<path d="M10.3246 18.2384C10.7239 18.2384 11.0477 17.9236 11.0477 17.5355C11.0477 17.1473 10.7239 16.8325 10.3246 16.8325C9.92538 16.8325 9.60156 17.1473 9.60156 17.5355C9.6008 17.9236 9.92462 18.2384 10.3246 18.2384Z" fill="#19191A"/>
<path d="M15.1488 18.2384C15.5481 18.2384 15.8727 17.9236 15.8727 17.5355C15.8727 17.1473 15.5481 16.8325 15.1488 16.8325C14.7496 16.8325 14.4258 17.1473 14.4258 17.5355C14.4258 17.9236 14.7496 18.2384 15.1488 18.2384Z" fill="#19191A"/>
</g>
<mask id="mask46_204_8118" style="mask-type:luminance" maskUnits="userSpaceOnUse" x="7" y="15" width="11" height="10">
<path d="M17.5628 15.1931H7.91309V24.5616H17.5628V15.1931Z" fill="white"/>
</mask>
<g mask="url(#mask46_204_8118)">
<path d="M7.91251 25.2651C8.31175 25.2651 8.63556 24.9502 8.63556 24.5621C8.63556 24.1739 8.31175 23.8591 7.91251 23.8591C7.51327 23.8591 7.18945 24.1739 7.18945 24.5621C7.18869 24.9502 7.5125 25.2651 7.91251 25.2651Z" fill="#19191A"/>
<path d="M7.91251 20.5812C8.31175 20.5812 8.63556 20.2664 8.63556 19.8783C8.63556 19.4901 8.31175 19.1753 7.91251 19.1753C7.51327 19.1753 7.18945 19.4901 7.18945 19.8783C7.18869 20.2664 7.5125 20.5812 7.91251 20.5812Z" fill="#19191A"/>
</g>
<mask id="mask47_204_8118" style="mask-type:luminance" maskUnits="userSpaceOnUse" x="7" y="15" width="11" height="10">
<path d="M17.5628 15.1931H7.91309V24.5616H17.5628V15.1931Z" fill="white"/>
</mask>
<g mask="url(#mask47_204_8118)">
<path d="M17.5629 15.8974C17.9614 15.8974 18.286 15.5826 18.286 15.1937C18.286 14.8055 17.9621 14.4907 17.5629 14.4907C17.1637 14.4907 16.8398 14.8055 16.8398 15.1937C16.8398 15.5818 17.1629 15.8974 17.5629 15.8974Z" fill="#19191A"/>
<path d="M12.7385 15.8974C13.1377 15.8974 13.4615 15.5826 13.4615 15.1937C13.4615 14.8055 13.1377 14.4907 12.7385 14.4907C12.3392 14.4907 12.0146 14.8055 12.0146 15.1937C12.0154 15.5818 12.3392 15.8974 12.7385 15.8974Z" fill="#19191A"/>
</g>
<mask id="mask48_204_8118" style="mask-type:luminance" maskUnits="userSpaceOnUse" x="7" y="15" width="11" height="10">
<path d="M17.5628 15.1931H7.91309V24.5616H17.5628V15.1931Z" fill="white"/>
</mask>
<g mask="url(#mask48_204_8118)">
<path d="M7.91251 15.8974C8.31175 15.8974 8.63556 15.5826 8.63556 15.1937C8.63556 14.8055 8.31175 14.4907 7.91251 14.4907C7.51327 14.4907 7.18945 14.8055 7.18945 15.1937C7.18869 15.5818 7.5125 15.8974 7.91251 15.8974Z" fill="#19191A"/>
</g>
</g>
<mask id="mask49_204_8118" style="mask-type:luminance" maskUnits="userSpaceOnUse" x="0" y="1" width="34" height="32">
<path d="M0.585938 1.04053V32.6292H33.1245L0.585938 1.04053Z" fill="white"/>
</mask>
<g mask="url(#mask49_204_8118)">
<mask id="mask50_204_8118" style="mask-type:luminance" maskUnits="userSpaceOnUse" x="7" y="24" width="11" height="10">
<path d="M17.5628 24.561H7.91309V33.9295H17.5628V24.561Z" fill="white"/>
</mask>
<g mask="url(#mask50_204_8118)">
<path d="M17.5629 29.9491C17.9614 29.9491 18.286 29.6343 18.286 29.2462C18.286 28.858 17.9621 28.5432 17.5629 28.5432C17.1637 28.5432 16.8398 28.858 16.8398 29.2462C16.8398 29.6343 17.1629 29.9491 17.5629 29.9491Z" fill="#19191A"/>
<path d="M12.7375 29.9491C13.1367 29.9491 13.4605 29.6343 13.4605 29.2462C13.4605 28.858 13.1367 28.5432 12.7375 28.5432C12.3382 28.5432 12.0137 28.858 12.0137 29.2462C12.0144 29.6343 12.3382 29.9491 12.7375 29.9491Z" fill="#19191A"/>
<path d="M10.3246 32.2909C10.7239 32.2909 11.0477 31.9761 11.0477 31.588C11.0477 31.1998 10.7239 30.885 10.3246 30.885C9.92538 30.885 9.60156 31.1998 9.60156 31.588C9.6008 31.9761 9.92462 32.2909 10.3246 32.2909Z" fill="#19191A"/>
<path d="M15.1488 32.2909C15.5481 32.2909 15.8727 31.9761 15.8727 31.588C15.8727 31.1998 15.5481 30.885 15.1488 30.885C14.7496 30.885 14.4258 31.1998 14.4258 31.588C14.4258 31.9761 14.7496 32.2909 15.1488 32.2909Z" fill="#19191A"/>
<path d="M10.3246 27.6064C10.7239 27.6064 11.0477 27.2916 11.0477 26.9034C11.0477 26.5153 10.7239 26.2004 10.3246 26.2004C9.92538 26.2004 9.60156 26.5153 9.60156 26.9034C9.6008 27.2916 9.92462 27.6064 10.3246 27.6064Z" fill="#19191A"/>
<path d="M15.1488 27.6064C15.5481 27.6064 15.8727 27.2916 15.8727 26.9034C15.8727 26.5153 15.5481 26.2004 15.1488 26.2004C14.7496 26.2004 14.4258 26.5153 14.4258 26.9034C14.4258 27.2916 14.7496 27.6064 15.1488 27.6064Z" fill="#19191A"/>
</g>
<mask id="mask51_204_8118" style="mask-type:luminance" maskUnits="userSpaceOnUse" x="7" y="24" width="11" height="10">
<path d="M17.5628 24.561H7.91309V33.9295H17.5628V24.561Z" fill="white"/>
</mask>
<g mask="url(#mask51_204_8118)">
<path d="M7.91251 29.9494C8.31175 29.9494 8.63556 29.6346 8.63556 29.2464C8.63556 28.8583 8.31175 28.5435 7.91251 28.5435C7.51327 28.5435 7.18945 28.8583 7.18945 29.2464C7.18869 29.6346 7.5125 29.9494 7.91251 29.9494Z" fill="#19191A"/>
</g>
<mask id="mask52_204_8118" style="mask-type:luminance" maskUnits="userSpaceOnUse" x="7" y="24" width="11" height="10">
<path d="M17.5628 24.561H7.91309V33.9295H17.5628V24.561Z" fill="white"/>
</mask>
<g mask="url(#mask52_204_8118)">
<path d="M17.5629 25.2651C17.9614 25.2651 18.286 24.9503 18.286 24.5614C18.286 24.1732 17.9621 23.8584 17.5629 23.8584C17.1637 23.8584 16.8398 24.1732 16.8398 24.5614C16.8398 24.9495 17.1629 25.2651 17.5629 25.2651Z" fill="#19191A"/>
<path d="M12.7385 25.2651C13.1377 25.2651 13.4615 24.9503 13.4615 24.5614C13.4615 24.1732 13.1377 23.8584 12.7385 23.8584C12.3392 23.8584 12.0146 24.1732 12.0146 24.5614C12.0154 24.9495 12.3392 25.2651 12.7385 25.2651Z" fill="#19191A"/>
</g>
<mask id="mask53_204_8118" style="mask-type:luminance" maskUnits="userSpaceOnUse" x="7" y="24" width="11" height="10">
<path d="M17.5628 24.561H7.91309V33.9295H17.5628V24.561Z" fill="white"/>
</mask>
<g mask="url(#mask53_204_8118)">
<path d="M7.91251 25.2651C8.31175 25.2651 8.63556 24.9503 8.63556 24.5614C8.63556 24.1732 8.31175 23.8584 7.91251 23.8584C7.51327 23.8584 7.18945 24.1732 7.18945 24.5614C7.18869 24.9495 7.5125 25.2651 7.91251 25.2651Z" fill="#19191A"/>
</g>
</g>
<mask id="mask54_204_8118" style="mask-type:luminance" maskUnits="userSpaceOnUse" x="0" y="1" width="34" height="32">
<path d="M0.585938 1.04053V32.6292H33.1245L0.585938 1.04053Z" fill="white"/>
</mask>
<g mask="url(#mask54_204_8118)">
<mask id="mask55_204_8118" style="mask-type:luminance" maskUnits="userSpaceOnUse" x="-2" y="-4" width="10" height="10">
<path d="M7.90949 -3.54443H-1.74023V5.82404H7.90949V-3.54443Z" fill="white"/>
</mask>
<g mask="url(#mask55_204_8118)">
<path d="M7.91153 6.52751C8.31077 6.52751 8.63459 6.21269 8.63459 5.82454C8.63459 5.4364 8.31077 5.12158 7.91153 5.12158C7.51229 5.12158 7.18848 5.4364 7.18848 5.82454C7.18772 6.21343 7.51153 6.52751 7.91153 6.52751Z" fill="#19191A"/>
<path d="M3.08612 6.52751C3.48537 6.52751 3.80918 6.21269 3.80918 5.82454C3.80918 5.4364 3.48537 5.12158 3.08612 5.12158C2.68688 5.12158 2.3623 5.4364 2.3623 5.82454C2.3623 6.21343 2.68688 6.52751 3.08612 6.52751Z" fill="#19191A"/>
<path d="M7.91153 1.84343C8.31077 1.84343 8.63459 1.52861 8.63459 1.14046C8.63459 0.752314 8.31077 0.4375 7.91153 0.4375C7.51229 0.4375 7.18848 0.752314 7.18848 1.14046C7.18772 1.52861 7.51153 1.84343 7.91153 1.84343Z" fill="#19191A"/>
<path d="M3.08612 1.84343C3.48537 1.84343 3.80918 1.52861 3.80918 1.14046C3.80918 0.752314 3.48537 0.4375 3.08612 0.4375C2.68688 0.4375 2.3623 0.752314 2.3623 1.14046C2.3623 1.52861 2.68688 1.84343 3.08612 1.84343Z" fill="#19191A"/>
<path d="M0.672272 4.18571C1.07151 4.18571 1.39533 3.8709 1.39533 3.48275C1.39533 3.0946 1.07151 2.77979 0.672272 2.77979C0.27303 2.77979 -0.0507812 3.0946 -0.0507812 3.48275C-0.0507812 3.8709 0.27303 4.18571 0.672272 4.18571Z" fill="#19191A"/>
<path d="M5.49747 4.18571C5.89671 4.18571 6.22129 3.8709 6.22129 3.48275C6.22129 3.0946 5.89671 2.77979 5.49747 2.77979C5.09823 2.77979 4.77441 3.0946 4.77441 3.48275C4.77441 3.8709 5.09823 4.18571 5.49747 4.18571Z" fill="#19191A"/>
</g>
</g>
<mask id="mask56_204_8118" style="mask-type:luminance" maskUnits="userSpaceOnUse" x="0" y="1" width="34" height="32">
<path d="M0.585938 1.04053V32.6292H33.1245L0.585938 1.04053Z" fill="white"/>
</mask>
<g mask="url(#mask56_204_8118)">
<mask id="mask57_204_8118" style="mask-type:luminance" maskUnits="userSpaceOnUse" x="-2" y="5" width="10" height="11">
<path d="M7.90949 5.82397H-1.74023V15.1925H7.90949V5.82397Z" fill="white"/>
</mask>
<g mask="url(#mask57_204_8118)">
<path d="M7.91153 15.8962C8.31077 15.8962 8.63459 15.5813 8.63459 15.1932C8.63459 14.805 8.31077 14.4902 7.91153 14.4902C7.51229 14.4902 7.18848 14.805 7.18848 15.1932C7.18848 15.5813 7.51153 15.8962 7.91153 15.8962Z" fill="#19191A"/>
<path d="M3.08612 15.8962C3.48537 15.8962 3.80918 15.5813 3.80918 15.1932C3.80918 14.805 3.48537 14.4902 3.08612 14.4902C2.68688 14.4902 2.3623 14.805 2.3623 15.1932C2.3623 15.5813 2.68688 15.8962 3.08612 15.8962Z" fill="#19191A"/>
<path d="M7.91153 11.2118C8.31077 11.2118 8.63459 10.897 8.63459 10.5089C8.63459 10.12 8.31077 9.80591 7.91153 9.80591C7.51229 9.80591 7.18848 10.1207 7.18848 10.5089C7.18772 10.897 7.51153 11.2118 7.91153 11.2118Z" fill="#19191A"/>
<path d="M3.08612 11.2118C3.48537 11.2118 3.80918 10.897 3.80918 10.5089C3.80918 10.12 3.48537 9.80591 3.08612 9.80591C2.68688 9.80591 2.3623 10.1207 2.3623 10.5089C2.3623 10.897 2.68688 11.2118 3.08612 11.2118Z" fill="#19191A"/>
<path d="M0.672272 13.5539C1.07151 13.5539 1.39533 13.2391 1.39533 12.8509C1.39533 12.4628 1.07151 12.1479 0.672272 12.1479C0.27303 12.1479 -0.0507812 12.4628 -0.0507812 12.8509C-0.0507812 13.2391 0.27303 13.5539 0.672272 13.5539Z" fill="#19191A"/>
<path d="M5.49747 13.5539C5.89671 13.5539 6.22129 13.2391 6.22129 12.8509C6.22129 12.4628 5.89671 12.1479 5.49747 12.1479C5.09823 12.1479 4.77441 12.4628 4.77441 12.8509C4.77441 13.2391 5.09823 13.5539 5.49747 13.5539Z" fill="#19191A"/>
<path d="M0.672272 8.86931C1.07151 8.86931 1.39533 8.55449 1.39533 8.16634C1.39533 7.77819 1.07151 7.46338 0.672272 7.46338C0.27303 7.46338 -0.0507812 7.77819 -0.0507812 8.16634C-0.0507812 8.55449 0.27303 8.86931 0.672272 8.86931Z" fill="#19191A"/>
<path d="M5.49747 8.86931C5.89671 8.86931 6.22129 8.55449 6.22129 8.16634C6.22129 7.77819 5.89671 7.46338 5.49747 7.46338C5.09823 7.46338 4.77441 7.77819 4.77441 8.16634C4.77441 8.55449 5.09823 8.86931 5.49747 8.86931Z" fill="#19191A"/>
</g>
<mask id="mask58_204_8118" style="mask-type:luminance" maskUnits="userSpaceOnUse" x="-2" y="5" width="10" height="11">
<path d="M7.90949 5.82397H-1.74023V15.1925H7.90949V5.82397Z" fill="white"/>
</mask>
<g mask="url(#mask58_204_8118)">
<path d="M7.91055 6.52825C8.3098 6.52825 8.63361 6.21343 8.63361 5.82454C8.63361 5.4364 8.3098 5.12158 7.91055 5.12158C7.51131 5.12158 7.1875 5.4364 7.1875 5.82454C7.18674 6.21343 7.51055 6.52825 7.91055 6.52825Z" fill="#19191A"/>
<path d="M3.08515 6.52825C3.48439 6.52825 3.8082 6.21343 3.8082 5.82454C3.8082 5.4364 3.48439 5.12158 3.08515 5.12158C2.6859 5.12158 2.36133 5.4364 2.36133 5.82454C2.36133 6.21343 2.6859 6.52825 3.08515 6.52825Z" fill="#19191A"/>
</g>
</g>
<mask id="mask59_204_8118" style="mask-type:luminance" maskUnits="userSpaceOnUse" x="0" y="1" width="34" height="32">
<path d="M0.585938 1.04053V32.6292H33.1245L0.585938 1.04053Z" fill="white"/>
</mask>
<g mask="url(#mask59_204_8118)">
<mask id="mask60_204_8118" style="mask-type:luminance" maskUnits="userSpaceOnUse" x="-2" y="15" width="10" height="10">
<path d="M7.90949 15.1929H-1.74023V24.5613H7.90949V15.1929Z" fill="white"/>
</mask>
<g mask="url(#mask60_204_8118)">
<path d="M7.91153 25.2651C8.31077 25.2651 8.63459 24.9502 8.63459 24.5621C8.63459 24.1739 8.31077 23.8591 7.91153 23.8591C7.51229 23.8591 7.18848 24.1739 7.18848 24.5621C7.18772 24.9502 7.51153 25.2651 7.91153 25.2651Z" fill="#19191A"/>
<path d="M3.08612 25.2651C3.48537 25.2651 3.80918 24.9502 3.80918 24.5621C3.80918 24.1739 3.48537 23.8591 3.08612 23.8591C2.68688 23.8591 2.3623 24.1739 2.3623 24.5621C2.3623 24.9502 2.68688 25.2651 3.08612 25.2651Z" fill="#19191A"/>
<path d="M7.91153 20.5812C8.31077 20.5812 8.63459 20.2664 8.63459 19.8783C8.63459 19.4901 8.31077 19.1753 7.91153 19.1753C7.51229 19.1753 7.18848 19.4901 7.18848 19.8783C7.18772 20.2664 7.51153 20.5812 7.91153 20.5812Z" fill="#19191A"/>
<path d="M3.08612 20.5812C3.48537 20.5812 3.80918 20.2664 3.80918 19.8783C3.80918 19.4901 3.48537 19.1753 3.08612 19.1753C2.68688 19.1753 2.3623 19.4901 2.3623 19.8783C2.3623 20.2664 2.68688 20.5812 3.08612 20.5812Z" fill="#19191A"/>
<path d="M0.672272 22.923C1.07151 22.923 1.39533 22.6082 1.39533 22.2201C1.39533 21.8319 1.07151 21.5171 0.672272 21.5171C0.27303 21.5171 -0.0507812 21.8319 -0.0507812 22.2201C-0.0507812 22.6082 0.27303 22.923 0.672272 22.923Z" fill="#19191A"/>
<path d="M5.49747 22.923C5.89671 22.923 6.22129 22.6082 6.22129 22.2201C6.22129 21.8319 5.89671 21.5171 5.49747 21.5171C5.09823 21.5171 4.77441 21.8319 4.77441 22.2201C4.77441 22.6082 5.09823 22.923 5.49747 22.923Z" fill="#19191A"/>
<path d="M0.672272 18.2384C1.07151 18.2384 1.39533 17.9236 1.39533 17.5355C1.39533 17.1473 1.07151 16.8325 0.672272 16.8325C0.27303 16.8325 -0.0507812 17.1473 -0.0507812 17.5355C-0.0507812 17.9236 0.27303 18.2384 0.672272 18.2384Z" fill="#19191A"/>
<path d="M5.49747 18.2384C5.89671 18.2384 6.22129 17.9236 6.22129 17.5355C6.22129 17.1473 5.89671 16.8325 5.49747 16.8325C5.09823 16.8325 4.77441 17.1473 4.77441 17.5355C4.77441 17.9236 5.09823 18.2384 5.49747 18.2384Z" fill="#19191A"/>
</g>
<mask id="mask61_204_8118" style="mask-type:luminance" maskUnits="userSpaceOnUse" x="-2" y="15" width="10" height="10">
<path d="M7.90949 15.1929H-1.74023V24.5613H7.90949V15.1929Z" fill="white"/>
</mask>
<g mask="url(#mask61_204_8118)">
<path d="M7.91055 15.8974C8.3098 15.8974 8.63361 15.5826 8.63361 15.1937C8.63361 14.8055 8.3098 14.4907 7.91055 14.4907C7.51131 14.4907 7.1875 14.8055 7.1875 15.1937C7.18674 15.5818 7.51055 15.8974 7.91055 15.8974Z" fill="#19191A"/>
<path d="M3.08515 15.8974C3.48439 15.8974 3.8082 15.5826 3.8082 15.1937C3.8082 14.8055 3.48439 14.4907 3.08515 14.4907C2.6859 14.4907 2.36133 14.8055 2.36133 15.1937C2.36133 15.5818 2.6859 15.8974 3.08515 15.8974Z" fill="#19191A"/>
</g>
</g>
<mask id="mask62_204_8118" style="mask-type:luminance" maskUnits="userSpaceOnUse" x="0" y="1" width="34" height="32">
<path d="M0.585938 1.04053V32.6292H33.1245L0.585938 1.04053Z" fill="white"/>
</mask>
<g mask="url(#mask62_204_8118)">
<mask id="mask63_204_8118" style="mask-type:luminance" maskUnits="userSpaceOnUse" x="-2" y="24" width="10" height="10">
<path d="M7.90949 24.561H-1.74023V33.9295H7.90949V24.561Z" fill="white"/>
</mask>
<g mask="url(#mask63_204_8118)">
<path d="M7.91153 29.9491C8.31077 29.9491 8.63459 29.6343 8.63459 29.2462C8.63459 28.858 8.31077 28.5432 7.91153 28.5432C7.51229 28.5432 7.18848 28.858 7.18848 29.2462C7.18772 29.6343 7.51153 29.9491 7.91153 29.9491Z" fill="#19191A"/>
<path d="M3.08612 29.9491C3.48537 29.9491 3.80918 29.6343 3.80918 29.2462C3.80918 28.858 3.48537 28.5432 3.08612 28.5432C2.68688 28.5432 2.3623 28.858 2.3623 29.2462C2.3623 29.6343 2.68688 29.9491 3.08612 29.9491Z" fill="#19191A"/>
<path d="M0.672272 32.2912C1.07151 32.2912 1.39533 31.9764 1.39533 31.5882C1.39533 31.2001 1.07151 30.8853 0.672272 30.8853C0.27303 30.8853 -0.0507812 31.2001 -0.0507812 31.5882C-0.0507812 31.9764 0.27303 32.2912 0.672272 32.2912Z" fill="#19191A"/>
<path d="M5.49747 32.2912C5.89671 32.2912 6.22129 31.9764 6.22129 31.5882C6.22129 31.2001 5.89671 30.8853 5.49747 30.8853C5.09823 30.8853 4.77441 31.2001 4.77441 31.5882C4.77441 31.9764 5.09823 32.2912 5.49747 32.2912Z" fill="#19191A"/>
<path d="M0.672272 27.6066C1.07151 27.6066 1.39533 27.2918 1.39533 26.9036C1.39533 26.5155 1.07151 26.2007 0.672272 26.2007C0.27303 26.2007 -0.0507812 26.5155 -0.0507812 26.9036C-0.0507812 27.2918 0.27303 27.6066 0.672272 27.6066Z" fill="#19191A"/>
<path d="M5.49747 27.6064C5.89671 27.6064 6.22129 27.2916 6.22129 26.9034C6.22129 26.5153 5.89671 26.2004 5.49747 26.2004C5.09823 26.2004 4.77441 26.5153 4.77441 26.9034C4.77441 27.2916 5.09823 27.6064 5.49747 27.6064Z" fill="#19191A"/>
</g>
<mask id="mask64_204_8118" style="mask-type:luminance" maskUnits="userSpaceOnUse" x="-2" y="24" width="10" height="10">
<path d="M7.90949 24.561H-1.74023V33.9295H7.90949V24.561Z" fill="white"/>
</mask>
<g mask="url(#mask64_204_8118)">
<path d="M7.91055 25.2651C8.3098 25.2651 8.63361 24.9503 8.63361 24.5614C8.63361 24.1732 8.3098 23.8584 7.91055 23.8584C7.51131 23.8584 7.1875 24.1732 7.1875 24.5614C7.18674 24.9495 7.51055 25.2651 7.91055 25.2651Z" fill="#19191A"/>
<path d="M3.08515 25.2651C3.48439 25.2651 3.8082 24.9503 3.8082 24.5614C3.8082 24.1732 3.48439 23.8584 3.08515 23.8584C2.6859 23.8584 2.36133 24.1732 2.36133 24.5614C2.36133 24.9495 2.6859 25.2651 3.08515 25.2651Z" fill="#19191A"/>
</g>
</g>
<path d="M33.1233 33.1974H0.584762C0.261503 33.1974 0 32.9436 0 32.6297V1.04027C0 0.810809 0.142569 0.603558 0.361378 0.516217C0.579425 0.428135 0.83102 0.476987 0.998749 0.639087L33.5373 32.2286C33.7043 32.3907 33.7546 32.6349 33.6639 32.8473C33.5732 33.059 33.3597 33.1974 33.1233 33.1974ZM1.16953 32.0613H31.7114L1.16953 2.41034V32.0613Z" fill="#19191A"/>
<path d="M0.583984 64.2179V32.6284H33.1226L0.583984 64.2179Z" fill="#81FDE9"/>
<path d="M0.584762 64.7854C0.509284 64.7854 0.433044 64.7714 0.361378 64.7418C0.142569 64.6537 0 64.4472 0 64.217V32.6283C0 32.3144 0.261503 32.0605 0.584762 32.0605H33.1233C33.3597 32.0605 33.5732 32.199 33.6639 32.4114C33.7546 32.6238 33.7043 32.8681 33.5373 33.0302L0.998749 64.6189C0.886675 64.7277 0.73648 64.7854 0.584762 64.7854ZM1.16953 33.1967V62.8477L31.7114 33.1967H1.16953Z" fill="#19191A"/>
</svg>
