<svg width="110" height="19" viewBox="0 0 110 19" fill="none" xmlns="http://www.w3.org/2000/svg">
<path d="M41.7845 18.0312C41.6188 18.0299 41.4587 17.9721 41.3311 17.8676L28.5772 7.52191L15.8306 17.8676C15.7018 17.9723 15.5403 18.0295 15.3736 18.0295C15.2069 18.0295 15.0453 17.9723 14.9165 17.8676L0.262591 5.97076C0.188189 5.91353 0.126705 5.84156 0.0820846 5.75947C0.0374643 5.67737 0.0106923 5.58696 0.0034836 5.49404C-0.0151911 5.30702 0.041733 5.12029 0.161828 4.97462L3.0408 1.46676C3.16114 1.32192 3.33443 1.22987 3.52302 1.21061C3.714 1.19613 3.90367 1.25188 4.05563 1.36714L15.3484 10.5317L28.095 0.193116C28.2238 0.088462 28.3853 0.03125 28.552 0.03125C28.7188 0.03125 28.8803 0.088462 29.0091 0.193116L41.7845 10.5317L54.5383 0.193116C54.6671 0.088462 54.8287 0.03125 54.9954 0.03125C55.1621 0.03125 55.3236 0.088462 55.4524 0.193116L68.2062 10.5388L80.9601 0.193116C81.0888 0.088462 81.2504 0.03125 81.4171 0.03125C81.5838 0.03125 81.7453 0.088462 81.8741 0.193116L94.6352 10.5388L105.942 1.36714C106.09 1.24842 106.279 1.19215 106.468 1.21061C106.562 1.21924 106.654 1.24632 106.738 1.29029C106.822 1.33425 106.897 1.39423 106.957 1.46676L109.836 4.97462C109.896 5.04696 109.941 5.13034 109.969 5.21997C109.996 5.3096 110.006 5.40372 109.996 5.49694C109.987 5.59015 109.959 5.68061 109.914 5.76315C109.87 5.84568 109.809 5.91865 109.735 5.97788L95.0886 17.8676C94.9598 17.9723 94.7983 18.0295 94.6316 18.0295C94.4648 18.0295 94.3033 17.9723 94.1745 17.8676L81.4135 7.52191L68.6669 17.8676C68.5381 17.9723 68.3765 18.0295 68.2098 18.0295C68.0431 18.0295 67.8816 17.9723 67.7528 17.8676L54.9918 7.52191L42.2164 17.8676C42.0945 17.9676 41.9427 18.0252 41.7845 18.0312ZM28.5772 5.8925C28.7454 5.89217 28.9084 5.95007 29.0379 6.05615L41.7845 16.4018L54.5383 6.05615C54.6671 5.95149 54.8287 5.89428 54.9954 5.89428C55.1621 5.89428 55.3236 5.95149 55.4524 6.05615L68.2062 16.4018L80.9601 6.05615C81.0888 5.95149 81.2504 5.89428 81.4171 5.89428C81.5838 5.89428 81.7453 5.95149 81.8741 6.05615L94.6352 16.4018L108.31 5.32327L106.273 2.91829L95.0886 12.0046C94.9598 12.1092 94.7983 12.1664 94.6316 12.1664C94.4648 12.1664 94.3033 12.1092 94.1745 12.0046L81.4135 1.65887L68.6669 12.0046C68.5381 12.1092 68.3765 12.1664 68.2098 12.1664C68.0431 12.1664 67.8816 12.1092 67.7528 12.0046L54.9918 1.65887L42.2164 12.0046C42.0876 12.1092 41.926 12.1664 41.7593 12.1664C41.5926 12.1664 41.4311 12.1092 41.3023 12.0046L28.5772 1.65887L15.8306 12.0046C15.7018 12.1092 15.5403 12.1664 15.3736 12.1664C15.2069 12.1664 15.0453 12.1092 14.9165 12.0046L3.72455 2.91829L1.73087 5.32327L15.406 16.4018L28.1238 6.05615C28.2514 5.95162 28.4115 5.89382 28.5772 5.8925Z" fill="url(#paint0_linear_190_29785)"/>
<defs>
<linearGradient id="paint0_linear_190_29785" x1="0" y1="9.03125" x2="110" y2="9.03125" gradientUnits="userSpaceOnUse">
<stop stop-color="#81FEE9"/>
<stop offset="0.0625" stop-color="#88F5EA"/>
<stop offset="0.125" stop-color="#90ECEC"/>
<stop offset="0.1875" stop-color="#97E3ED"/>
<stop offset="0.25" stop-color="#9EDAEF"/>
<stop offset="0.3125" stop-color="#A6D1F0"/>
<stop offset="0.375" stop-color="#ADC8F1"/>
<stop offset="0.4375" stop-color="#B4BFF3"/>
<stop offset="0.5" stop-color="#BCB6F4"/>
<stop offset="0.5625" stop-color="#C3ADF5"/>
<stop offset="0.625" stop-color="#CAA4F7"/>
<stop offset="0.6875" stop-color="#D19BF8"/>
<stop offset="0.75" stop-color="#D992FA"/>
<stop offset="0.8125" stop-color="#E089FB"/>
<stop offset="0.875" stop-color="#E780FC"/>
<stop offset="0.9375" stop-color="#EF77FE"/>
<stop offset="1" stop-color="#F66EFF"/>
</linearGradient>
</defs>
</svg>
