<svg width="26" height="19" viewBox="0 0 26 19" fill="none" xmlns="http://www.w3.org/2000/svg">
<g clip-path="url(#clip0_328_35403)">
<g clip-path="url(#clip1_328_35403)">
<rect x="0.408203" y="0.258301" width="25.1852" height="18.3165" rx="2.28956" fill="#1A47B8"/>
<path fill-rule="evenodd" clip-rule="evenodd" d="M3.08739 0.258301H0.408203V3.31105L22.8997 18.5748L25.5934 18.5748V15.522L3.08739 0.258301Z" fill="#F9FFFF"/>
<path d="M1.3018 0.258301L25.5934 16.7864V18.5748H24.7207L0.408203 2.02958V0.258301H1.3018Z" fill="#F93939"/>
<path fill-rule="evenodd" clip-rule="evenodd" d="M23.1948 0.258301H25.5934V3.31105C25.5934 3.31105 10.0143 13.4804 2.80679 18.5748H0.408203V15.522L23.1948 0.258301Z" fill="#F9FFFF"/>
<path d="M25.5934 0.258301H24.78L0.408203 16.8006V18.5748H1.3018L25.5934 2.04295V0.258301Z" fill="#F93939"/>
<path fill-rule="evenodd" clip-rule="evenodd" d="M9.56731 0.258301H16.4552V5.90811H25.5934V12.9213H16.4552V18.5748H9.56731V12.9213H0.408203V5.90811H9.56731V0.258301Z" fill="#F9FFFF"/>
<path fill-rule="evenodd" clip-rule="evenodd" d="M11.0125 0.258301H14.9891V7.30311H25.5934V11.53H14.9891V18.5748H11.0125V11.53H0.408203V7.30311H11.0125V0.258301Z" fill="#F93939"/>
</g>
</g>
<defs>
<clipPath id="clip0_328_35403">
<rect width="25.1852" height="18.3165" fill="white" transform="translate(0.408203 0.258301)"/>
</clipPath>
<clipPath id="clip1_328_35403">
<rect x="0.408203" y="0.258301" width="25.1852" height="18.3165" rx="2.28956" fill="white"/>
</clipPath>
</defs>
</svg>
