<svg width="239" height="193" viewBox="0 0 239 193" fill="none" xmlns="http://www.w3.org/2000/svg">
<path d="M235.795 57.9687L0.832013 57.9688L0.832031 267.931C0.832031 269.61 2.19043 270.969 3.8684 270.969C5.54419 270.969 6.90271 269.61 6.90271 267.931L6.90269 64.0427L235.797 64.0427C237.473 64.0427 238.832 62.6835 238.832 61.0046C238.832 59.3279 237.473 57.9687 235.795 57.9687Z" fill="url(#paint0_linear_278_4380)"/>
<path d="M235.795 76.0818L21.1328 76.0818L21.1328 267.931C21.1328 269.61 22.4913 270.969 24.1671 270.969C25.845 270.969 27.2035 269.61 27.2035 267.931L27.2035 82.1557L235.795 82.1557C237.471 82.1557 238.83 80.7965 238.83 79.1176C238.832 77.441 237.473 76.0818 235.795 76.0818Z" fill="url(#paint1_linear_278_4380)"/>
<path d="M235.795 94.1948L41.4375 94.1948L41.4375 267.931C41.4375 269.61 42.7959 270.969 44.4717 270.969C46.1497 270.969 47.5082 269.61 47.5082 267.931L47.5082 100.269L235.797 100.269C237.473 100.269 238.831 98.9095 238.831 97.2306C238.831 95.5539 237.473 94.1948 235.795 94.1948Z" fill="url(#paint2_linear_278_4380)"/>
<path d="M235.795 112.31L61.7383 112.31L61.7383 267.931C61.7383 269.61 63.0968 270.969 64.7726 270.969C66.4484 270.969 67.8068 269.61 67.8068 267.931L67.8068 118.384L235.793 118.384C237.468 118.384 238.827 117.025 238.827 115.346C238.827 113.667 237.473 112.31 235.795 112.31Z" fill="url(#paint3_linear_278_4380)"/>
<path d="M235.795 130.425L82.041 130.425L82.041 267.931C82.041 269.61 83.3995 270.969 85.0753 270.969C86.7532 270.969 88.1117 269.61 88.1117 267.931L88.1117 136.497L235.795 136.497C237.47 136.497 238.829 135.138 238.829 133.461C238.831 131.784 237.473 130.425 235.795 130.425Z" fill="url(#paint4_linear_278_4380)"/>
<path d="M15.808 47.5928C13.952 47.5928 12.168 47.3048 10.456 46.7287C8.76003 46.1367 7.27203 45.2967 5.99203 44.2087C4.71203 43.1047 3.79203 41.7847 3.23203 40.2487L8.72803 38.2327C8.95203 38.8727 9.40803 39.4567 10.096 39.9847C10.784 40.5127 11.624 40.9367 12.616 41.2567C13.608 41.5767 14.672 41.7367 15.808 41.7367C16.976 41.7367 18.064 41.5607 19.072 41.2087C20.096 40.8407 20.92 40.3367 21.544 39.6967C22.168 39.0407 22.48 38.2807 22.48 37.4167C22.48 36.5367 22.152 35.8167 21.496 35.2567C20.84 34.6807 20 34.2247 18.976 33.8887C17.952 33.5527 16.896 33.2967 15.808 33.1207C13.424 32.7527 11.288 32.1847 9.40003 31.4167C7.51203 30.6487 6.01603 29.5847 4.91203 28.2247C3.82403 26.8647 3.28003 25.1047 3.28003 22.9447C3.28003 20.9127 3.86403 19.1367 5.03203 17.6167C6.20003 16.0967 7.73603 14.9127 9.64003 14.0647C11.544 13.2167 13.6 12.7927 15.808 12.7927C17.648 12.7927 19.424 13.0807 21.136 13.6567C22.848 14.2327 24.344 15.0727 25.624 16.1767C26.92 17.2807 27.848 18.6087 28.408 20.1607L22.888 22.1527C22.664 21.5127 22.208 20.9288 21.52 20.4008C20.832 19.8727 19.992 19.4567 19 19.1527C18.008 18.8327 16.944 18.6727 15.808 18.6727C14.672 18.6567 13.592 18.8407 12.568 19.2247C11.56 19.5927 10.736 20.0967 10.096 20.7367C9.45603 21.3767 9.13603 22.1127 9.13603 22.9447C9.13603 24.0167 9.43203 24.8247 10.024 25.3687C10.632 25.9127 11.44 26.3127 12.448 26.5687C13.456 26.8087 14.576 27.0327 15.808 27.2407C18.048 27.5927 20.12 28.1847 22.024 29.0167C23.928 29.8487 25.456 30.9607 26.608 32.3527C27.76 33.7287 28.336 35.4167 28.336 37.4167C28.336 39.4487 27.76 41.2327 26.608 42.7687C25.456 44.2887 23.928 45.4727 22.024 46.3207C20.12 47.1688 18.048 47.5928 15.808 47.5928ZM43.4752 47.5928C41.2672 47.5928 39.2512 47.0247 37.4272 45.8887C35.6192 44.7527 34.1712 43.2327 33.0832 41.3287C32.0112 39.4087 31.4752 37.2887 31.4752 34.9688C31.4752 33.2087 31.7872 31.5687 32.4112 30.0487C33.0352 28.5127 33.8912 27.1687 34.9792 26.0167C36.0832 24.8487 37.3632 23.9367 38.8192 23.2807C40.2752 22.6247 41.8272 22.2968 43.4752 22.2968C45.6832 22.2968 47.6912 22.8647 49.4992 24.0007C51.3232 25.1367 52.7712 26.6647 53.8432 28.5847C54.9312 30.5047 55.4752 32.6327 55.4752 34.9688C55.4752 36.7127 55.1632 38.3447 54.5392 39.8647C53.9152 41.3847 53.0512 42.7287 51.9472 43.8967C50.8592 45.0487 49.5872 45.9527 48.1312 46.6087C46.6912 47.2648 45.1392 47.5928 43.4752 47.5928ZM43.4752 41.7367C44.6432 41.7367 45.6912 41.4247 46.6192 40.8008C47.5472 40.1767 48.2752 39.3527 48.8032 38.3287C49.3472 37.3047 49.6192 36.1847 49.6192 34.9688C49.6192 33.7207 49.3392 32.5847 48.7792 31.5607C48.2352 30.5207 47.4912 29.6967 46.5472 29.0887C45.6192 28.4647 44.5952 28.1527 43.4752 28.1527C42.3232 28.1527 41.2832 28.4647 40.3552 29.0887C39.4272 29.7127 38.6912 30.5447 38.1472 31.5847C37.6032 32.6247 37.3312 33.7527 37.3312 34.9688C37.3312 36.2327 37.6112 37.3767 38.1712 38.4007C38.7312 39.4247 39.4752 40.2407 40.4032 40.8487C41.3472 41.4407 42.3712 41.7367 43.4752 41.7367ZM77.4498 10.9687H83.3058V46.9688H77.4498V43.9688C76.6818 45.0407 75.7138 45.9127 74.5458 46.5847C73.3778 47.2568 72.0258 47.5928 70.4898 47.5928C68.7458 47.5928 67.1138 47.2648 65.5938 46.6087C64.0738 45.9527 62.7298 45.0487 61.5618 43.8967C60.4098 42.7287 59.5058 41.3847 58.8498 39.8647C58.1938 38.3447 57.8658 36.7127 57.8658 34.9688C57.8658 33.2247 58.1938 31.5927 58.8498 30.0727C59.5058 28.5527 60.4098 27.2167 61.5618 26.0647C62.7298 24.8967 64.0738 23.9847 65.5938 23.3287C67.1138 22.6727 68.7458 22.3447 70.4898 22.3447C72.0258 22.3447 73.3778 22.6807 74.5458 23.3527C75.7138 24.0087 76.6818 24.8807 77.4498 25.9687V10.9687ZM70.5618 41.9527C71.8098 41.9527 72.9138 41.6407 73.8738 41.0167C74.8338 40.3927 75.5858 39.5527 76.1298 38.4967C76.6738 37.4247 76.9458 36.2487 76.9458 34.9688C76.9458 33.6727 76.6738 32.4967 76.1298 31.4407C75.5858 30.3687 74.8258 29.5207 73.8498 28.8967C72.8898 28.2727 71.7938 27.9607 70.5618 27.9607C69.3298 27.9607 68.2018 28.2807 67.1778 28.9207C66.1698 29.5447 65.3618 30.3847 64.7538 31.4407C64.1618 32.4967 63.8658 33.6727 63.8658 34.9688C63.8658 36.2647 64.1698 37.4407 64.7778 38.4967C65.3858 39.5527 66.1938 40.3927 67.2018 41.0167C68.2258 41.6407 69.3458 41.9527 70.5618 41.9527ZM99.2564 47.5928C97.0484 47.5928 95.0324 47.0247 93.2084 45.8887C91.4004 44.7527 89.9524 43.2247 88.8644 41.3047C87.7924 39.3847 87.2564 37.2647 87.2564 34.9447C87.2564 33.2007 87.5684 31.5687 88.1924 30.0487C88.8164 28.5127 89.6724 27.1687 90.7604 26.0167C91.8644 24.8487 93.1444 23.9367 94.6004 23.2807C96.0564 22.6247 97.6084 22.2968 99.2564 22.2968C101.128 22.2968 102.84 22.6967 104.392 23.4967C105.96 24.2807 107.288 25.3607 108.376 26.7367C109.464 28.1127 110.256 29.6807 110.752 31.4407C111.248 33.2007 111.36 35.0407 111.088 36.9607H93.5444C93.7684 37.8567 94.1364 38.6647 94.6484 39.3847C95.1604 40.0887 95.8084 40.6567 96.5924 41.0887C97.3764 41.5047 98.2644 41.7207 99.2564 41.7367C100.28 41.7527 101.208 41.5127 102.04 41.0167C102.888 40.5047 103.592 39.8167 104.152 38.9527L110.128 40.3447C109.152 42.4727 107.696 44.2167 105.76 45.5767C103.824 46.9207 101.656 47.5928 99.2564 47.5928ZM93.3524 32.5687H105.16C104.984 31.6087 104.608 30.7447 104.032 29.9767C103.472 29.1927 102.776 28.5687 101.944 28.1047C101.112 27.6407 100.216 27.4087 99.2564 27.4087C98.2964 27.4087 97.4084 27.6407 96.5924 28.1047C95.7764 28.5527 95.0804 29.1687 94.5044 29.9527C93.9444 30.7207 93.5604 31.5927 93.3524 32.5687ZM129.967 39.7447L135.247 42.6007C134.143 44.1047 132.759 45.3127 131.095 46.2247C129.431 47.1367 127.615 47.5928 125.647 47.5928C123.439 47.5928 121.423 47.0247 119.599 45.8887C117.791 44.7527 116.343 43.2327 115.255 41.3287C114.183 39.4087 113.647 37.2887 113.647 34.9688C113.647 33.2087 113.959 31.5687 114.583 30.0487C115.207 28.5127 116.063 27.1687 117.151 26.0167C118.255 24.8487 119.535 23.9367 120.991 23.2807C122.447 22.6247 123.999 22.2968 125.647 22.2968C127.615 22.2968 129.431 22.7527 131.095 23.6647C132.759 24.5767 134.143 25.8007 135.247 27.3367L129.967 30.1687C129.407 29.5287 128.743 29.0327 127.975 28.6807C127.223 28.3287 126.447 28.1527 125.647 28.1527C124.495 28.1527 123.455 28.4727 122.527 29.1127C121.599 29.7367 120.863 30.5687 120.319 31.6087C119.775 32.6327 119.503 33.7527 119.503 34.9688C119.503 36.1687 119.775 37.2887 120.319 38.3287C120.863 39.3527 121.599 40.1767 122.527 40.8008C123.455 41.4247 124.495 41.7367 125.647 41.7367C126.479 41.7367 127.271 41.5607 128.023 41.2087C128.775 40.8407 129.423 40.3527 129.967 39.7447ZM138.596 46.9688L147.38 34.9207L138.668 22.9447H145.892L150.98 29.9287L156.092 22.9447H163.316L154.604 34.9207L163.388 46.9688H156.164L150.98 39.8647L145.82 46.9688H138.596Z" fill="url(#paint5_linear_278_4380)"/>
<path d="M228.51 25.8297C228.516 25.6667 228.57 25.5089 228.665 25.3746C228.761 25.2403 228.894 25.135 229.048 25.0713C229.203 25.0075 229.374 24.9878 229.54 25.0145C229.706 25.0412 229.861 25.1131 229.986 25.2219L238.534 33.5018C238.617 33.5815 238.682 33.6762 238.727 33.7805C238.772 33.8848 238.795 33.9966 238.795 34.1096C238.795 34.2225 238.772 34.3343 238.727 34.4386C238.682 34.5429 238.617 34.6376 238.534 34.7173C238.453 34.7971 238.356 34.8604 238.248 34.9036C238.141 34.9468 238.027 34.9691 237.911 34.9691C237.795 34.9691 237.68 34.9468 237.573 34.9036C237.466 34.8604 237.368 34.7971 237.287 34.7173L228.768 26.4374C228.605 26.2744 228.512 26.0568 228.51 25.8297Z" fill="#F174FE"/>
<path d="M228.51 34.1091C228.511 33.8817 228.604 33.6636 228.768 33.5013L237.324 25.2215C237.406 25.1417 237.503 25.0784 237.61 25.0352C237.717 24.992 237.832 24.9697 237.948 24.9697C238.064 24.9697 238.179 24.992 238.286 25.0352C238.393 25.0784 238.49 25.1417 238.571 25.2215C238.654 25.3012 238.72 25.3959 238.764 25.5002C238.809 25.6045 238.832 25.7163 238.832 25.8292C238.832 25.9422 238.809 26.054 238.764 26.1583C238.72 26.2626 238.654 26.3573 238.571 26.437L230.023 34.7169C229.898 34.8257 229.743 34.8976 229.577 34.9243C229.411 34.951 229.24 34.9313 229.086 34.8675C228.931 34.8038 228.798 34.6985 228.702 34.5642C228.607 34.4299 228.553 34.2721 228.547 34.1091L228.51 34.1091Z" fill="#F174FE"/>
<path d="M210.874 25.8289C210.872 25.7159 210.894 25.6037 210.938 25.4992C210.983 25.3947 211.049 25.3 211.132 25.2211C211.214 25.1411 211.312 25.0776 211.42 25.0343C211.528 24.991 211.643 24.9687 211.76 24.9687C211.876 24.9687 211.992 24.991 212.099 25.0343C212.207 25.0776 212.305 25.1411 212.387 25.2211L220.935 33.501C221.018 33.5808 221.083 33.6756 221.128 33.7798C221.172 33.8841 221.195 33.9959 221.195 34.1088C221.195 34.2216 221.172 34.3334 221.128 34.4377C221.083 34.542 221.018 34.6367 220.935 34.7165C220.853 34.7963 220.755 34.8597 220.648 34.9029C220.54 34.9461 220.424 34.9683 220.308 34.9683C220.191 34.9683 220.076 34.9461 219.968 34.9029C219.861 34.8597 219.763 34.7963 219.68 34.7165L211.132 26.4366C211.05 26.3567 210.985 26.2619 210.941 26.1577C210.896 26.0534 210.874 25.9417 210.874 25.8289Z" fill="#F174FE"/>
<path d="M210.873 34.1091C210.872 33.9962 210.894 33.8843 210.938 33.7799C210.983 33.6755 211.048 33.5808 211.131 33.5013L219.665 25.2215C219.831 25.0603 220.057 24.9697 220.292 24.9697C220.528 24.9697 220.753 25.0603 220.92 25.2215C221.086 25.3827 221.18 25.6013 221.18 25.8292C221.18 26.0572 221.086 26.2758 220.92 26.437L212.349 34.7169C212.267 34.7969 212.169 34.8604 212.062 34.9037C211.954 34.947 211.838 34.9693 211.722 34.9693C211.605 34.9693 211.49 34.947 211.382 34.9037C211.274 34.8604 211.177 34.7969 211.094 34.7169C211.017 34.635 210.958 34.5391 210.92 34.4347C210.882 34.3303 210.866 34.2196 210.873 34.1091Z" fill="#F174FE"/>
<path d="M194.831 25.8283C194.831 25.7148 194.854 25.6024 194.9 25.4979C194.945 25.3935 195.012 25.2991 195.097 25.2205C195.179 25.1407 195.276 25.0774 195.383 25.0342C195.49 24.991 195.605 24.9687 195.721 24.9687C195.837 24.9687 195.952 24.991 196.059 25.0342C196.166 25.0774 196.263 25.1407 196.345 25.2205L204.9 33.5004C204.983 33.5802 205.048 33.675 205.093 33.7792C205.137 33.8835 205.16 33.9953 205.16 34.1082C205.16 34.221 205.137 34.3328 205.093 34.4371C205.048 34.5414 204.983 34.6361 204.9 34.7159C204.818 34.7957 204.72 34.8591 204.612 34.9023C204.505 34.9454 204.389 34.9677 204.273 34.9677C204.156 34.9677 204.041 34.9454 203.933 34.9023C203.826 34.8591 203.728 34.7957 203.645 34.7159L195.097 26.436C194.929 26.2754 194.833 26.0569 194.831 25.8283Z" fill="#F174FE"/>
<path d="M194.831 34.1082C194.832 33.9948 194.855 33.8826 194.901 33.7783C194.946 33.6739 195.013 33.5794 195.097 33.5004L203.645 25.2205C203.728 25.1407 203.826 25.0774 203.933 25.0342C204.041 24.991 204.156 24.9687 204.273 24.9687C204.389 24.9687 204.505 24.991 204.612 25.0342C204.72 25.0774 204.818 25.1407 204.9 25.2205C204.983 25.3003 205.048 25.3951 205.093 25.4993C205.137 25.6036 205.16 25.7154 205.16 25.8283C205.16 25.9411 205.137 26.0529 205.093 26.1572C205.048 26.2615 204.983 26.3562 204.9 26.436L196.345 34.7159C196.263 34.7957 196.166 34.859 196.059 34.9022C195.952 34.9454 195.837 34.9677 195.721 34.9677C195.605 34.9677 195.49 34.9454 195.383 34.9022C195.276 34.859 195.179 34.7957 195.097 34.7159C195.012 34.6373 194.945 34.543 194.9 34.4385C194.854 34.334 194.831 34.2216 194.831 34.1082Z" fill="#F174FE"/>
<defs>
<linearGradient id="paint0_linear_278_4380" x1="0.832022" y1="164.469" x2="238.832" y2="164.469" gradientUnits="userSpaceOnUse">
<stop stop-color="#81FEE9"/>
<stop offset="0.0625" stop-color="#88F5EA"/>
<stop offset="0.125" stop-color="#90ECEC"/>
<stop offset="0.1875" stop-color="#97E3ED"/>
<stop offset="0.25" stop-color="#9EDAEF"/>
<stop offset="0.3125" stop-color="#A6D1F0"/>
<stop offset="0.375" stop-color="#ADC8F1"/>
<stop offset="0.4375" stop-color="#B4BFF3"/>
<stop offset="0.5" stop-color="#BCB6F4"/>
<stop offset="0.5625" stop-color="#C3ADF5"/>
<stop offset="0.625" stop-color="#CAA4F7"/>
<stop offset="0.6875" stop-color="#D19BF8"/>
<stop offset="0.75" stop-color="#D992FA"/>
<stop offset="0.8125" stop-color="#E089FB"/>
<stop offset="0.875" stop-color="#E780FC"/>
<stop offset="0.9375" stop-color="#EF77FE"/>
<stop offset="1" stop-color="#F66EFF"/>
</linearGradient>
<linearGradient id="paint1_linear_278_4380" x1="21.1328" y1="173.525" x2="238.83" y2="173.525" gradientUnits="userSpaceOnUse">
<stop stop-color="#81FEE9"/>
<stop offset="0.0625" stop-color="#88F5EA"/>
<stop offset="0.125" stop-color="#90ECEC"/>
<stop offset="0.1875" stop-color="#97E3ED"/>
<stop offset="0.25" stop-color="#9EDAEF"/>
<stop offset="0.3125" stop-color="#A6D1F0"/>
<stop offset="0.375" stop-color="#ADC8F1"/>
<stop offset="0.4375" stop-color="#B4BFF3"/>
<stop offset="0.5" stop-color="#BCB6F4"/>
<stop offset="0.5625" stop-color="#C3ADF5"/>
<stop offset="0.625" stop-color="#CAA4F7"/>
<stop offset="0.6875" stop-color="#D19BF8"/>
<stop offset="0.75" stop-color="#D992FA"/>
<stop offset="0.8125" stop-color="#E089FB"/>
<stop offset="0.875" stop-color="#E780FC"/>
<stop offset="0.9375" stop-color="#EF77FE"/>
<stop offset="1" stop-color="#F66EFF"/>
</linearGradient>
<linearGradient id="paint2_linear_278_4380" x1="41.4375" y1="182.582" x2="238.831" y2="182.582" gradientUnits="userSpaceOnUse">
<stop stop-color="#81FEE9"/>
<stop offset="0.0625" stop-color="#88F5EA"/>
<stop offset="0.125" stop-color="#90ECEC"/>
<stop offset="0.1875" stop-color="#97E3ED"/>
<stop offset="0.25" stop-color="#9EDAEF"/>
<stop offset="0.3125" stop-color="#A6D1F0"/>
<stop offset="0.375" stop-color="#ADC8F1"/>
<stop offset="0.4375" stop-color="#B4BFF3"/>
<stop offset="0.5" stop-color="#BCB6F4"/>
<stop offset="0.5625" stop-color="#C3ADF5"/>
<stop offset="0.625" stop-color="#CAA4F7"/>
<stop offset="0.6875" stop-color="#D19BF8"/>
<stop offset="0.75" stop-color="#D992FA"/>
<stop offset="0.8125" stop-color="#E089FB"/>
<stop offset="0.875" stop-color="#E780FC"/>
<stop offset="0.9375" stop-color="#EF77FE"/>
<stop offset="1" stop-color="#F66EFF"/>
</linearGradient>
<linearGradient id="paint3_linear_278_4380" x1="61.7383" y1="191.639" x2="238.827" y2="191.639" gradientUnits="userSpaceOnUse">
<stop stop-color="#81FEE9"/>
<stop offset="0.0625" stop-color="#88F5EA"/>
<stop offset="0.125" stop-color="#90ECEC"/>
<stop offset="0.1875" stop-color="#97E3ED"/>
<stop offset="0.25" stop-color="#9EDAEF"/>
<stop offset="0.3125" stop-color="#A6D1F0"/>
<stop offset="0.375" stop-color="#ADC8F1"/>
<stop offset="0.4375" stop-color="#B4BFF3"/>
<stop offset="0.5" stop-color="#BCB6F4"/>
<stop offset="0.5625" stop-color="#C3ADF5"/>
<stop offset="0.625" stop-color="#CAA4F7"/>
<stop offset="0.6875" stop-color="#D19BF8"/>
<stop offset="0.75" stop-color="#D992FA"/>
<stop offset="0.8125" stop-color="#E089FB"/>
<stop offset="0.875" stop-color="#E780FC"/>
<stop offset="0.9375" stop-color="#EF77FE"/>
<stop offset="1" stop-color="#F66EFF"/>
</linearGradient>
<linearGradient id="paint4_linear_278_4380" x1="82.041" y1="200.697" x2="238.829" y2="200.697" gradientUnits="userSpaceOnUse">
<stop stop-color="#81FEE9"/>
<stop offset="0.0625" stop-color="#88F5EA"/>
<stop offset="0.125" stop-color="#90ECEC"/>
<stop offset="0.1875" stop-color="#97E3ED"/>
<stop offset="0.25" stop-color="#9EDAEF"/>
<stop offset="0.3125" stop-color="#A6D1F0"/>
<stop offset="0.375" stop-color="#ADC8F1"/>
<stop offset="0.4375" stop-color="#B4BFF3"/>
<stop offset="0.5" stop-color="#BCB6F4"/>
<stop offset="0.5625" stop-color="#C3ADF5"/>
<stop offset="0.625" stop-color="#CAA4F7"/>
<stop offset="0.6875" stop-color="#D19BF8"/>
<stop offset="0.75" stop-color="#D992FA"/>
<stop offset="0.8125" stop-color="#E089FB"/>
<stop offset="0.875" stop-color="#E780FC"/>
<stop offset="0.9375" stop-color="#EF77FE"/>
<stop offset="1" stop-color="#F66EFF"/>
</linearGradient>
<linearGradient id="paint5_linear_278_4380" x1="0.832031" y1="29.9688" x2="165.832" y2="29.9688" gradientUnits="userSpaceOnUse">
<stop stop-color="#81FEE9"/>
<stop offset="0.0625" stop-color="#88F5EA"/>
<stop offset="0.125" stop-color="#90ECEC"/>
<stop offset="0.1875" stop-color="#97E3ED"/>
<stop offset="0.25" stop-color="#9EDAEF"/>
<stop offset="0.3125" stop-color="#A6D1F0"/>
<stop offset="0.375" stop-color="#ADC8F1"/>
<stop offset="0.4375" stop-color="#B4BFF3"/>
<stop offset="0.5" stop-color="#BCB6F4"/>
<stop offset="0.5625" stop-color="#C3ADF5"/>
<stop offset="0.625" stop-color="#CAA4F7"/>
<stop offset="0.6875" stop-color="#D19BF8"/>
<stop offset="0.75" stop-color="#D992FA"/>
<stop offset="0.8125" stop-color="#E089FB"/>
<stop offset="0.875" stop-color="#E780FC"/>
<stop offset="0.9375" stop-color="#EF77FE"/>
<stop offset="1" stop-color="#F66EFF"/>
</linearGradient>
</defs>
</svg>
