<svg width="21" height="21" viewBox="0 0 21 21" fill="none" xmlns="http://www.w3.org/2000/svg">
<path d="M10.7617 0C8.88705 0.000346525 7.04768 0.512575 5.43977 1.48204C3.83186 2.45151 2.51572 3.84186 1.63176 5.50477C0.747793 7.16768 0.329158 9.04078 0.420507 10.9243C0.511857 12.8077 1.10977 14.631 2.15045 16.1994C3.19114 17.7679 4.63557 19.0227 6.32966 19.8302C8.02375 20.6376 9.90396 20.9673 11.7697 20.784C13.6355 20.6008 15.4168 19.9116 16.9237 18.7898C18.4305 17.6681 19.6064 16.1559 20.3259 14.4146C20.679 13.5604 19.833 12.7021 18.9818 13.05C17.5229 13.6444 15.903 13.7058 14.4038 13.2234C12.9046 12.7409 11.6209 11.7452 10.7759 10.4094C9.93089 9.07355 9.578 7.48206 9.77859 5.91162C9.97918 4.34117 10.7206 2.89111 11.8738 1.81354L11.9536 1.73021C12.5242 1.07396 12.0706 0.00833335 11.1686 0.00833335H10.8932L10.8228 0.00208331L10.7606 0H10.7617Z" fill="#19191A"/>
</svg>
